<?xml version="1.0" encoding="UTF-8" standalone="no"?>
<svg
   xmlns:dc="http://purl.org/dc/elements/1.1/"
   xmlns:cc="http://creativecommons.org/ns#"
   xmlns:rdf="http://www.w3.org/1999/02/22-rdf-syntax-ns#"
   xmlns:svg="http://www.w3.org/2000/svg"
   xmlns="http://www.w3.org/2000/svg"
   xmlns:sodipodi="http://sodipodi.sourceforge.net/DTD/sodipodi-0.dtd"
   xmlns:inkscape="http://www.inkscape.org/namespaces/inkscape"
   version="1.0"
   width="169pt"
   height="169pt"
   viewBox="0 0 169 169"
   preserveAspectRatio="xMidYMid meet"
   id="svg2"
   inkscape:version="0.91 r13725"
   sodipodi:docname="favicon.svg"
   inkscape:export-filename="C:\Users\Matej\AppData\Local\Programs\Python\Python310\Scripts\.venv\Scripts\mujprojekt\evidence_pojisteni\static\evidence_pojisteni\favicon.png"
   inkscape:export-xdpi="17.04142"
   inkscape:export-ydpi="17.04142">
  <metadata
     id="metadata34">
    <rdf:RDF>
      <cc:Work
         rdf:about="">
        <dc:format>image/svg+xml</dc:format>
        <dc:type
           rdf:resource="http://purl.org/dc/dcmitype/StillImage" />
        <dc:title />
      </cc:Work>
    </rdf:RDF>
  </metadata>
  <defs
     id="defs32">
    <clipPath
       id="Clip_1">
      <path
         id="path4185"
         d="m 68.457,62.976 992.82,0 0,592.572 -992.82,0 z"
         inkscape:connector-curvature="0" />
    </clipPath>
    <clipPath
       id="Clip_2">
      <path
         id="path4188"
         d="m 32.457,146.091 1011.84,0 0,572.823 -1011.84,0 z"
         inkscape:connector-curvature="0" />
    </clipPath>
    <clipPath
       id="Clip_3">
      <path
         id="path4191"
         d="m 713.457,270.213 44.22,0 0,63.309 -44.22,0 z"
         inkscape:connector-curvature="0" />
    </clipPath>
    <clipPath
       id="Clip_4">
      <path
         id="path4194"
         d="m 1020.057,414.48 21,0 0,10.482 -21,0 z"
         inkscape:connector-curvature="0" />
    </clipPath>
    <clipPath
       id="Clip_5">
      <path
         id="path4197"
         d="m 363.477,28.026 379.35,0 0,150.114 -379.35,0 z"
         inkscape:connector-curvature="0" />
    </clipPath>
    <clipPath
       id="Clip_6">
      <path
         id="path4200"
         d="m 739.677,415.419 119.28,0 0,78.798 -119.28,0 z"
         inkscape:connector-curvature="0" />
    </clipPath>
  </defs>
  <sodipodi:namedview
     pagecolor="#ffffff"
     bordercolor="#666666"
     borderopacity="1"
     objecttolerance="10"
     gridtolerance="10"
     guidetolerance="10"
     inkscape:pageopacity="0"
     inkscape:pageshadow="2"
     inkscape:window-width="1920"
     inkscape:window-height="1137"
     id="namedview30"
     showgrid="false"
     inkscape:zoom="1.8583704"
     inkscape:cx="18.11234"
     inkscape:cy="49.268564"
     inkscape:window-x="-8"
     inkscape:window-y="-8"
     inkscape:window-maximized="1"
     inkscape:current-layer="GraphicMama"
     fit-margin-top="0"
     fit-margin-left="0"
     fit-margin-right="0"
     fit-margin-bottom="0" />
  <g
     id="GraphicMama"
     transform="matrix(0.22717606,0,0,0.22717606,-73.055675,0.59889434)">
    <path
       id="path91838"
       d="m 848.61,709.905 c 5.592,-8.22 8.991,-21.822 0.762,-29.139 17.619,7.26 23.223,25.728 -0.762,29.139 m -10.263,-1.707 c 5.295,-9.909 2.487,-25.584 -9.753,-30.732 l 0.225,-0.069 c 24.732,2.976 27.018,24.204 9.528,30.801 m 10.785,-34.044 c -5.772,-0.903 -11.406,-2.538 -16.614,-5.175 -3.825,-1.929 -7.722,-4.398 -12.237,-8.034 -6.945,-6.021 -12.834,-12.816 -17.067,-20.85 0.564,-0.57 -10.911,11.232 -8.526,8.712 5.589,9.063 15.471,18.072 27.087,27.054 -3.372,-0.285 -7.197,0.069 -11.517,1.239 35.529,2.412 28.401,30.972 -2.358,31.551 l -15.402,-1.143 -0.042,-0.03 -28.782,-2.127 c -16.572,-1.044 -27.117,-16.791 -31.818,-28.746 0.525,-0.228 -17.166,6.348 -16.149,6.033 8.67,12 24.861,37.896 40.854,37.896 9.456,-0.564 39.339,0.168 63.507,0 4.629,0 11.646,-2.37 16.092,-2.397 5.124,0 10.218,0 15.033,0 25.083,0.03 31.41,-38.826 -2.061,-43.998 m 206.151,-238.392 c -1.851,6.441 -4.095,12.264 -6.495,17.1 -6.195,13.8 -24.054,29.733 -37.716,-27.405 0,-21.81 34.005,-14.859 42.192,-1.383 2.187,3.906 3.189,7.656 2.019,11.688 m -19.044,-31.623 c -5.871,-0.633 -11.124,-0.507 -15.684,0.636 -16.824,-7.077 -37.632,-8.289 -33.849,-18.963 4.179,-14.295 6.804,-22.824 2.655,-33.99 30.675,-6.894 48.15,-80.835 6.762,-88.521 1.692,-3.021 -7.779,9.723 -6.918,7.911 24.054,1.284 30.687,54.207 -6.72,71.841 -2.454,-4.455 -5.517,-8.994 -9.186,-13.788 l -7.158,-7.302 c -7.455,-7.317 -14.712,-13.746 -21.852,-19.257 l -4.674,-3.51 c -45.282,-32.763 -86.43,-28.986 -143.94,10.953 16.572,-127.5 -58.116,-89.04 -90.582,-63.903 -23.715,18.354 -48.318,62.706 -29.757,100.614 l 6.465,10.56 c 8.316,11.136 21.06,21.372 39.498,29.787 -1.836,-1.269 -89.61,-62.55 0.972,-136.731 89.637,-62.496 53.643,87.87 53.643,87.87 84.57,-67.26 139.746,-57.096 188.208,-1.875 14.58,19.737 13.41,27.024 7.524,54.036 -3.204,12.942 19.509,12.393 36.9,21.513 -2.415,2.847 -4.308,6.498 -5.619,11.097 -4.659,16.266 16.431,47.352 32.718,52.02 0.072,0 0.129,0.042 0.201,0.057 -7.467,25.599 -28.839,48.861 -46.554,52.977 -49.113,3.636 -82.791,17.286 -118.335,-31.692 12.408,46.932 59.724,46.833 110.385,42.168 -54.417,41.841 -157.998,63.198 -223.299,33.282 -5.436,0.198 -6.915,0.099 -12.084,-0.195 18.309,16.044 52.752,24.768 91.386,25.092 l 28.839,-1.254 c 51.411,-4.935 98.574,-19.947 129.276,-55.854 20.988,-1.467 50.916,-34.92 56.715,-70.446 7.371,-7.824 12.636,-21.216 15.489,-31.185 4.671,-16.254 -9.912,-31.608 -31.425,-33.948 M 313.332,699.612 c -1.638,6.6 -6.141,11.844 -12.195,11.928 l -14.046,-1.437 c 2.556,-4.737 3.897,-10.971 3.585,-17.088 0.693,0.222 -10.608,-3.543 -7.818,-2.595 0.903,9.417 -5.013,19.134 -13.482,19.26 l -10.191,-0.03 c 4.089,-8.829 2.853,-22.236 -6.456,-28.707 -2.748,-1.608 -2.748,-1.608 -6.429,-2.913 -5.589,-1.464 -12.861,-1.131 -22.095,2.043 37.167,-2.313 34.005,28.167 17.871,29.535 L 206.799,709.2 c -24.942,0.48 -61.644,-39.093 -72.399,-105.198 -8.154,-5.061 -19.932,-13.173 -17.871,-11.22 l 0.873,10.686 c -0.03,46.491 45.384,118.194 74.817,117.489 9.498,0.438 50.463,4.695 58.581,0 7.41,2.184 21.399,3.99 31.35,0.21 7.947,3.54 24.519,2.244 29.814,0.24 5.787,-1.959 11.322,-11.727 13.848,-19.692 0.945,0.231 -13.659,-2.415 -12.48,-2.103 m 397.605,-3.804 c -3.909,-2.805 -7.989,-5.697 -12.027,-8.628 -13.494,-8.025 -13.494,-8.025 -21.948,-15.027 -5.571,-4.812 -7.053,-6.876 -12.339,-13.803 -1.614,1.914 -5.229,4.998 -9.429,6.483 4.341,4.539 7.08,7.296 11.241,10.968 8.583,7.548 18.15,14.235 28.764,20.007 25.632,4.947 19.845,37.512 4.713,37.725 l -14.046,-1.455 c 8.67,-15.972 3.417,-49.185 -31.83,-37.074 37.887,-2.343 31.053,36.426 14.115,36.654 l -10.191,0 c 6.705,-14.478 -0.861,-41.307 -34.98,-29.592 37.167,-2.298 34.005,28.182 17.871,29.55 l -35.274,-0.408 c -30.111,-0.945 -69.255,-52.755 -83.751,-105.735 -0.945,20.046 7.017,47.229 20.283,70.08 l 7.836,14.325 c 12.717,17.691 30.138,31.662 42.462,31.662 9.498,0.438 49.05,4.71 57.168,0 7.41,2.199 21.399,4.005 31.35,0.225 7.947,3.54 20.187,1.947 25.581,0.24 16.797,-4.851 20.355,-34.722 4.431,-46.182 m 18.153,-344.31 c -13.905,0 -20.934,-14.646 -20.934,-36.189 0,-21.543 22.557,-43.239 36.462,-43.239 13.905,0 18.111,24.516 18.111,46.059 0,21.54 -19.734,33.369 -33.639,33.369 m 39.285,-33.369 c 0,-32.427 -8.442,-50.286 -23.757,-50.286 -17.997,0 -43.518,23.472 -43.518,47.466 0,26.673 11.589,43.236 27.99,43.236 16.404,0 39.285,-15.381 39.285,-40.416"
       inkscape:connector-curvature="0"
       style="fill:#36a9e1" />
    <path
       id="path91840"
       d="m 1067.661,438.087 c -2.853,9.966 -8.118,23.361 -15.486,31.182 -5.802,35.532 -35.727,68.985 -56.718,70.452 -30.702,35.907 -77.862,50.916 -129.273,55.851 -25.155,11.715 -43.563,24.996 -62.973,44.52 4.236,8.037 10.122,14.832 17.067,20.853 4.518,3.636 8.415,6.105 12.24,8.034 5.208,2.637 10.839,4.275 16.611,5.175 33.471,5.172 27.147,44.025 2.064,43.998 -4.815,0.03 -9.912,0.03 -15.033,0 -4.449,0.03 -11.466,2.409 -16.095,2.4 -24.165,0.15 -54.048,-0.579 -63.507,-0.03 -15.993,0 -32.184,-25.896 -40.851,-37.896 -6.492,2.007 -10.206,3.525 -16.797,4.542 4.035,2.934 8.115,5.823 12.027,8.625 15.921,11.466 12.363,41.334 -4.434,46.185 -5.391,1.707 -17.631,3.3 -25.578,-0.237 -9.951,3.774 -23.94,1.971 -31.353,-0.228 -8.115,4.707 -47.667,0.438 -57.168,0 -12.324,0 -29.742,-13.971 -42.462,-31.662 -76.182,9.939 -148.032,10.515 -224.133,-8.151 -2.526,7.968 -8.061,17.736 -13.848,19.698 -5.292,2.001 -21.867,3.297 -29.811,-0.243 -9.954,3.78 -23.943,1.977 -31.353,-0.21 -8.118,4.695 -49.083,0.438 -58.581,0 -29.433,0.705 -74.844,-70.998 -74.814,-117.492 l -0.876,-10.686 C 91.146,568.704 64.113,540.48 41.4,507.492 c 23.067,-2.82 32.706,-9.87 40.47,-17.85 C 45.876,479.184 41.64,463.986 12.702,433.716 52.272,424.668 75.264,414.684 91.401,399.882 60.696,393.003 41.346,382.641 20.82,347.721 58.932,345.438 76.056,346.665 88.578,337.5 71.439,337.194 56.463,333.609 38.112,324.462 c 17.292,-17.268 54.444,-53.922 93.165,-69.783 -15.879,0 -40.47,2.886 -67.05,10.572 41.472,-64.02 124.926,-97.107 210.327,-119.592 -18.267,-3.525 -26.832,-12.69 -50.577,-11.277 C 422.067,35.22 431.949,63.417 664.395,108.06 658.959,90.846 643.968,74.946 622.047,51.204 c 93.576,12.789 158.493,35.727 192.57,69.165 7.383,-16.413 11.04,-25.095 9.288,-51.783 27.033,26.787 63.042,57.561 59.754,86.463 25.167,-17.145 45.921,-55.758 49.407,-74.721 13.212,18.525 31.83,40.998 29.289,74.835 25.368,-25.953 52.512,-25.014 79.869,-31.593 -26.751,25.02 -38.127,44.97 -52.767,68.697 32.256,-5.961 45.597,-4.908 66.417,8.838 -35.163,18.609 -45.822,37.278 -59.754,62.169 41.388,7.686 21.09,78.807 -9.585,85.704 4.149,11.163 4.347,22.515 0.171,36.81 -3.786,10.674 17.022,11.88 33.849,18.96 4.56,-1.143 9.813,-1.272 15.684,-0.636 21.513,2.34 36.093,17.694 31.422,33.948"
       inkscape:connector-curvature="0"
       style="fill:#7f4c2f" />
    <path
       id="path91842"
       d="m 823.431,671.058 c -1.665,0 -25.41,-30.984 -25.41,-30.984 l -32.937,37.323 3.294,-25.137 -47.208,25.137 27.447,35.484 111.516,0 c 18.033,-16.779 9.174,-35.484 -36.702,-41.823 m -646.983,38.637 136.881,6.477 8.043,-23.139 C 251.499,672.705 206.091,656.856 123.747,588.822 c -4.77,18.975 21.069,92.742 52.701,120.873 m 484.314,-47.844 c -18.978,-6.372 -50.883,-7.512 -88.596,-6.3 5.652,-24.024 19.398,-44.343 46.113,-58.722 l -87.051,7.032 c -4.47,1.173 -9.48,10.806 -9.405,21.615 11.748,54.528 36.417,83.709 62.577,109.962 l 117.162,3.288 c 12.321,-4.149 18.711,-14.091 14.103,-34.773 z m 352.824,-255.543 c -36.954,-6.09 -38.142,-15.624 -34.389,-54.792 40.8,-22.281 49.005,-63.465 14.1,-85.392 -17.076,15.519 -21.876,36.054 -24.99,63.141 -55.311,-48.654 -90.216,-64.587 -180.549,-7.299 4.371,-54.624 15.363,-116.592 -59.61,-83.142 -36.024,26.352 -67.746,55.029 -45.852,112.692 L 577.98,380.211 c 37.761,21.759 79.677,31.665 123.117,37.209 -29.139,16.494 -66.732,29.037 -98.472,36.636 66.192,35.376 59.895,28.332 100.878,33.771 -18.63,18.843 -39.483,29.952 -62.763,32.628 53.019,50.946 74.925,44.364 109.479,47.325 63.045,49.989 188.283,18.129 241.005,-29.472 21.312,-22.92 51.045,-43.923 56.178,-68.799 21.132,-46.65 11.814,-60.711 -33.816,-63.201"
       inkscape:connector-curvature="0"
       style="fill:#ffb4b4" />
    <g
       id="g91846"
       clip-path="url(#Clip_1)"
       style="opacity:0.2">
      <path
         id="path91844"
         d="m 542.994,577.542 c 13.113,-13.242 29.115,-23.904 51.759,-28.629 -60.486,-68.646 -176.685,-36.69 -231.603,0 89.736,-13.056 143.307,-8.217 179.373,11.244 -37.899,16.011 -61.86,38.1 -77.235,63.933 65.943,-20.232 90.705,-30.336 149.463,-26.46 -26.007,12.483 -43.644,33.852 -42.585,57.918 l 30.114,0 c 5.589,-23.202 18.075,-49.713 54.114,-63.051 -25.53,-18.486 -71.994,-26.409 -113.4,-14.955 M 359.016,482.619 c 10.437,-5.928 56.862,-18.54 91.284,-23.808 -5.691,-13.488 -19.875,-24.138 -30.585,-26.346 12.84,-7.272 40.092,-12.267 68.697,-17.046 -44.412,0.18 -87.21,3.429 -120.927,23.964 27.228,2.199 51.702,3.921 64.935,15.039 -57.141,6.486 -100.851,18.084 -135.045,35.715 31.521,3.132 45.945,2.475 78.108,17.676 -4.377,-14.94 -9.276,-20.943 -16.467,-25.194 m 660.156,-73.932 c -11.895,-2.721 -25.023,-6.255 -32.841,-12.441 -0.351,-1.008 -0.696,-2.025 -0.969,-3.093 -1.374,-5.37 -0.582,-10.944 -1.047,-16.386 -0.792,-9.288 -2.793,-19.044 -7.47,-27.132 -15.747,-52.56 -98.103,-91.248 -179.784,-29.568 -0.936,-0.528 -1.872,-1.059 -2.739,-1.74 -0.696,-0.543 -1.353,-1.137 -1.986,-1.761 0.837,-8.721 -0.336,-18.216 -0.762,-26.706 -0.507,-10.068 -1.473,-19.992 -3.609,-29.856 -1.794,-8.28 -3.861,-18.492 -9.018,-25.455 -4.362,-5.895 -11.415,-7.728 -18.465,-7.575 -26.628,2.4 -47.019,16.452 -64.314,33.591 -5.382,5.856 -11.46,14.13 -14.895,22.788 -2.832,4.986 -4.167,10.827 -2.991,16.158 -0.03,0.03 -0.036,0.054 -0.054,0.084 -0.096,0.171 0,0.291 0.189,0.351 0.213,0.315 0.963,0.195 1.035,-0.171 0.03,-0.111 0.042,-0.219 0.063,-0.327 0.081,-0.123 0.162,-0.246 0.246,-0.372 10.368,-11.433 20.397,-23.082 33.285,-31.827 3.093,-2.097 6.303,-4.017 9.615,-5.748 8.982,-3.162 18.636,-3.807 28.65,-0.483 33.219,11.013 17.649,50.985 23.991,76.092 0.678,1.371 1.188,0.858 2.709,0.375 49.233,-20.049 106.785,-31.254 159.588,16.92 34.041,36.114 21.825,67.593 73.47,71.052 31.776,-11.682 43.923,5.145 33.219,37.179 0.051,-0.045 0.096,-0.096 0.147,-0.141 -2.019,4.161 -14.289,34.974 -33.042,44.607 -13.656,7.512 -29.205,11.115 -44.34,14.295 -30.87,6.495 -59.058,6.084 -85.734,-12.309 -1.038,-1.323 -3.759,-2.247 -4.914,-3.477 -0.114,-0.123 -0.633,-0.114 -0.522,0.138 4.809,11.061 13.866,18.66 24.57,22.758 2.931,1.398 5.961,2.526 8.844,3.435 13.497,4.263 27.945,4.095 41.94,3.765 14.388,-0.336 29.448,-0.606 43.539,-3.816 5.46,-1.245 10.815,-3.108 15.09,-6.852 1.602,-1.407 11.337,-10.629 13.989,-13.188 4.899,-4.725 12.561,-11.403 14.133,-18.279 2.211,-2.787 9.072,-28.113 11.454,-36.267 17.031,-20.094 22.248,-53.943 -30.27,-48.618 M 253.383,346.341 c 12.774,-10.809 56.931,-21.261 96.693,-30.312 -63.108,5.634 -126.15,11.325 -162.687,41.94 53.64,7.401 87.828,18.858 115.638,33.483 -11.178,-33.483 -25.473,-38.973 -49.644,-45.111 M 144.834,226.65 c 85.116,-28.986 164.571,-82.014 280.641,-54.42 -22.659,-10.557 -86.433,-25.935 -109.983,-31.719 -36.795,-2.352 -48.033,-5.697 -72.69,-11.169 -0.378,0.231 -0.633,0.435 -0.714,0.597 -1.41,2.82 32.466,15.747 32.466,15.747 -65.733,20.517 -112.608,43.314 -141.894,68.235 -3.309,2.235 -43.026,37.965 -43.026,37.965 l 41.643,2.817 c -36.504,21.06 -56.427,41.46 -62.814,61.326 53.691,-35.49 108.861,-61.542 164.757,-82.941 -25.104,-7.167 -53.883,-10.098 -88.386,-6.438 M 713.286,116.274 c 34.905,2.553 64.899,10.827 106.719,60.138 17.07,-14.988 23.895,-30.396 21.939,-51.408 18.285,22.509 26.733,62.736 17.958,95.544 40.182,-19.5 80.562,-38.925 95.043,-68.052 -0.03,-26.034 -5.886,-46.467 -19.764,-59.211 -15.057,36.165 -41.724,60.075 -54.414,71.193 -7.002,-34.566 -21.837,-63.549 -53.763,-80.355 -0.309,16.974 -1.956,34.215 -10.605,52.866 C 782.361,104.847 724.317,80.643 646.512,62.976 l 29.049,47.691 c 0,0 33.396,37.923 37.368,45.906 3.087,5.805 17.325,12.135 29.901,21.567 -6.099,-18.045 -21.279,-49.917 -29.544,-61.866 m -187.23,93.318 c 15.399,-12.159 51.924,-26.082 99.282,-40.884 -66.876,6.18 -128.22,17.508 -169.863,47.178 60.273,10.707 109.242,25.92 143.04,47.178 -18.702,-31.797 -31.59,-44.145 -72.459,-53.472"
         inkscape:connector-curvature="0"
         style="fill:#ffffff" />
    </g>
    <g
       id="g91850"
       clip-path="url(#Clip_2)"
       style="opacity:0.2">
      <path
         id="path91848"
         d="m 902.907,416.781 c 0.27,1.638 2.622,1.584 3.756,0.981 9.441,-5.025 13.578,-14.586 16.56,-24.606 3.009,-10.113 4.596,-19.812 1.779,-30.294 -5.511,-20.52 -35.94,-28.728 -54.489,-24.69 -18.699,4.071 -39.831,13.029 -49.485,30.489 -4.233,7.653 -3.702,17.586 -3.609,26.163 0.051,4.293 0.591,8.628 1.989,12.696 1.632,4.752 3.159,6.45 7.206,9.225 0.906,0.621 2.793,0.438 3.039,-0.795 0.687,-3.423 0.558,-4.482 0.057,-7.125 1.179,-6.999 7.236,-14.367 12.528,-17.814 7.245,-4.719 15.885,-7.14 24.351,-8.499 8.88,-1.422 18.546,-1.254 26.199,4.047 3.504,2.427 6.441,5.772 8.181,9.669 1.326,2.976 1.419,5.709 3.129,8.37 -1.023,3.975 -1.896,7.893 -1.191,12.183 M 792.402,573.174 c -1.152,-0.237 -2.304,-0.468 -3.453,-0.705 -0.054,-0.03 -0.096,-0.036 -0.15,-0.048 -0.03,0 -0.066,0 -0.093,-0.03 0.492,0.081 0.984,0.15 1.479,0.237 2.811,0.507 5.592,1.074 8.358,1.665 -2.04,-0.411 -4.086,-0.786 -6.141,-1.128 M 284.685,707.841 c -0.27,0.405 -0.558,0.789 -0.852,1.161 -2.886,1.596 -5.868,2.889 -8.763,2.736 2.181,-4.566 2.37,-10.356 0.675,-15.033 -2.421,-6.669 -9.111,-11.559 -15.819,-14.748 7.623,1.413 16.128,3.246 25.938,5.484 0.204,3.768 0.912,7.611 0.825,11.385 -0.078,3.309 -0.102,6.132 -2.004,9.015 m -30.813,0.291 c -5.151,-0.306 -10.488,0.576 -15.6,0.696 -4.878,0.117 -9.813,0.231 -14.73,0.135 -7.917,-1.269 -15.246,-2.52 -21.318,-9.261 -3.135,-3.483 -4.98,-7.494 -6.69,-11.577 19.923,-7.065 34.05,-10.983 55.371,-7.713 3.378,3.714 6.123,8.274 6.762,13.2 0.747,5.742 -1.935,9.771 -3.795,14.52 m 777.525,-253.857 c -2.976,-4.545 -5.739,-9.201 -8.217,-14.004 -0.426,-3.306 -2.013,-6.828 -2.88,-9.9 -1.929,-6.822 -3.591,-14.133 -8.007,-19.803 0.27,-1.269 -2.118,-1.17 -2.781,-0.84 -5.886,2.925 -9.876,11.907 -10.617,18.138 -1.167,9.783 0.462,19.74 3.354,29.112 4.731,15.333 19.254,27.636 35.445,22.887 -1.08,5.808 -2.523,11.274 -5.682,16.641 -3.969,6.741 -9.69,12.276 -15.624,17.295 -5.667,4.797 -11.628,9.333 -17.73,13.566 -3.081,2.139 -6.738,3.945 -10.125,5.991 -16.617,2.907 -32.469,6.876 -49.806,5.595 -9.747,-0.723 -19.563,-2.637 -28.872,-5.601 -6.039,-1.923 -12.867,-4.116 -18.984,-7.197 -0.171,-0.168 -0.342,-0.33 -0.504,-0.501 -7.791,-8.139 -12.771,-17.976 -17.49,-28.026 -0.387,-0.828 -2.166,-0.741 -2.337,0.201 -5.139,28.287 24.603,45.138 47.799,50.916 13.779,3.432 28.488,4.581 42.633,3.249 1.842,-0.174 4.305,-0.429 7.017,-0.834 -3.213,2.112 -6.585,4.044 -9.87,6.078 -8.004,1.734 -15.876,4.662 -23.742,6.72 -9.711,2.535 -19.416,5.091 -29.187,7.392 -19.827,4.674 -39.993,7.452 -60.399,6.861 -19.827,-0.573 -39.435,-5.199 -59.034,-7.932 -16.182,-2.256 -32.331,-1.275 -48.525,-0.036 -33.381,-6.609 -74.994,-25.428 -96.489,-49.797 27.795,-5.802 51.663,-14.499 62.763,-32.628 -23.376,-1.254 -59.046,-14.508 -100.878,-33.774 40.11,-5.469 78.699,-20.349 98.472,-36.633 -36.285,-4.782 -56.94,-7.323 -126.789,-36.753 37.626,-3.132 66.816,-8.385 92.808,-21.192 9.039,9.396 31.458,24.699 53.316,27.276 -15.297,-11.379 -22.347,-18.033 -27.579,-26.541 -2.856,-4.647 -6.141,-9.096 -8.994,-13.827 -0.396,-0.84 -7.551,-16.755 -8.787,-22.389 -0.846,-3.867 1.656,-20.07 3.012,-24.126 2.55,-7.635 5.337,-15.285 9.027,-22.455 3.177,-6.177 38.922,-34.338 53.574,-38.781 9.255,-2.805 18.78,-4.827 28.383,-5.907 0.723,-0.081 14.064,14.433 16.515,22.998 1.761,6.168 2.247,12.768 2.925,19.134 0.564,5.346 -3.861,29.997 -3.666,30.636 -0.723,3.24 -0.888,6.531 -0.273,9.813 0.216,1.143 3.18,0.192 3.3,0.036 0.171,0.054 77.085,-35.967 121.101,-30.147 4.827,1.974 8.478,5.886 12.774,8.493 1.848,2.802 4.437,5.355 7.434,7.914 7.068,6.036 14.937,10.704 22.602,15.897 4.443,3.006 8.775,6.174 12.636,9.909 2.778,2.685 4.812,5.58 8.169,7.182 6.78,9.804 9.945,9.669 21.198,6.558 8.484,-13.488 8.484,-44.502 -11.277,-60.309 2.808,-8.733 6.138,-17.289 10.311,-25.479 4.86,-9.531 10.797,-18.555 17.85,-26.613 6.282,-7.176 26.022,-25.272 30.084,-26.739 0.996,-0.357 0.03,-1.182 -0.681,-1.02 -14.688,3.345 -28.248,8.532 -40.335,17.784 -12.354,9.459 -22.662,21.282 -31.029,34.347 -8.763,13.671 -21.753,43.488 -22.509,41.943 0.243,-2.781 -0.132,-5.835 0.078,-8.769 0.567,-7.872 1.734,-15.663 3.204,-23.412 2.802,-14.715 7.227,-29.562 12.438,-43.647 3.468,-6.45 34.542,-49.296 37.704,-52.719 3.042,-3.297 13.842,-20.457 13.398,-20.424 -30.315,9.459 -84.426,77.364 -86.604,113.508 -30.759,-15.702 -90.045,-11.004 -114.687,7.548 0.258,-9.081 -2.649,-67.893 -57.141,-63.771 -103.137,14.673 -125.253,69.186 -117.48,114.474 4.227,16.506 6.099,18.6 11.115,25.407 -26.544,11.907 -73.5,27.501 -118.875,36.918 40.467,42.996 61.17,48.87 94.107,50.751 -10.179,8.25 -32.703,15.741 -58.818,20.676 21.363,26.295 60.963,44.679 87.048,49.812 -15.285,7.473 -42.723,15.84 -68.697,19.269 54.438,82.767 86.991,103.293 131.013,111.912 l -49.38,25.77 -0.675,1.806 c -2.487,-0.519 -5.154,-0.966 -8.025,-1.332 l -82.644,-1.296 c 0.603,-2.313 1.239,-4.602 1.968,-6.828 2.067,-6.297 17.625,-34.641 17.625,-34.641 l 25.407,-19.245 c -27.597,-7.056 -69.669,-0.909 -128.313,20.346 0,0.003 -0.03,0 -0.045,0 -7.629,1.299 -15.138,3.285 -22.707,4.911 6.789,-9.27 13.917,-18.351 20.448,-27.798 16.68,-13.788 36.273,-25.779 60.978,-34.611 -40.035,-17.043 -102.729,-21.492 -198.564,-7.521 88.644,7.263 92.553,30.903 123.627,51.852 -6.492,8.982 -3.396,9.906 -9.771,18.96 -0.582,0.828 0.717,1.248 1.356,1.113 5.679,-1.206 11.361,-2.181 17.112,-2.73 -19.959,14.493 -21.228,20.877 -24.102,39.828 5.289,-3.063 10.689,-6.015 16.152,-8.838 2.223,7.371 4.581,13.908 7.05,19.737 -133.005,1.149 -250.563,-34.977 -405.738,-157.041 10.713,23.628 25.752,46.713 44.928,68.25 -2.223,23.124 17.01,88.107 40.596,116.784 4.308,-1.386 8.328,-2.742 12.129,-4.059 7.875,9.852 21.405,15.522 33.327,17.43 8.55,1.368 17.298,1.395 25.923,0.993 3.315,-0.153 7.023,-0.078 10.767,-0.162 -0.549,0.354 -0.978,0.789 -1.143,1.38 -0.132,0.468 0.195,0.87 0.648,1.005 1.329,0.39 2.787,0.282 4.251,-0.06 5.439,1.713 11.772,1.947 18.039,1.848 1.044,0.303 2.319,0.234 3.123,-0.066 3.84,-0.108 7.593,-0.258 11.022,-0.183 5.043,0.111 18.015,2.505 22.554,-2.19 7.776,-3.873 4.71,-17.259 -0.714,-25.002 2.763,0.651 5.61,1.32 8.568,2.019 l -0.054,-0.033 c 56.37,14.508 121.59,20.151 195.156,13.302 l 43.29,-4.008 c -10.17,-21.81 -23.82,-44.412 -26.031,-68.955 22.722,-7.647 44.331,-13.104 61.614,-11.67 -12.975,15.795 -16.173,28.578 -21.939,66.306 41.754,-13.959 79.416,-19.581 111.066,-12.951 5.721,3.891 11.871,6.684 19.083,5.73 0.819,-0.108 1.659,-0.237 2.502,-0.372 4.203,-0.315 8.4,-1.137 12.711,-1.605 4.116,-0.447 10.053,-1.494 14.397,-0.216 6.573,19.527 18.042,29.37 31.278,35.73 1.242,-0.735 28.17,2.379 37.599,2.238 3.714,-0.057 7.374,-0.195 10.962,-0.507 7.044,-0.234 34.782,-0.219 41.538,-0.717 4.521,0.06 9.021,-0.159 13.467,-1.143 2.886,-0.639 11.4,-3.54 8.664,-7.824 0.444,-3.585 -7.386,-21.357 -14.85,-23.31 1.698,7.29 1.905,11.202 -0.639,18.234 0.117,-6.609 -7.551,-19.515 -18.192,-21.51 1.905,4.014 4.497,12.258 4.629,18.03 -0.309,0.927 -3.204,2.508 -3.504,2.553 -4.941,0.753 -9.459,2.205 -14.556,2.205 -5.31,0 -10.713,-0.198 -16.005,-0.633 -7.536,-0.621 -16.431,-1.125 -23.985,-3.996 20.595,-15.099 30.798,-28.179 32.142,-39.546 0,0 -11.64,-13.404 -12.099,-18.291 l 56.28,-45.18 c 3.36,-0.441 6.708,-1.047 10.047,-1.812 1.623,-0.372 3.531,-0.753 5.517,-1.2 12.825,-2.148 25.503,-4.893 38.169,-8.571 10.56,-3.066 21.006,-6.528 31.095,-10.917 6.231,-2.712 13.797,-5.523 19.686,-9.699 7.263,-2.256 14.589,-7.089 20.259,-11.517 2.268,-1.77 4.341,-3.636 6.363,-5.586 1.566,-1.047 2.853,-2.268 3.744,-3.687 2.703,-2.538 5.91,-4.887 7.491,-8.208 0.063,-0.048 0.129,-0.09 0.192,-0.138 0.363,-0.279 0.414,-0.528 0.303,-0.741 0.594,-0.408 1.185,-0.819 1.767,-1.233 8.823,-4.845 17.019,-11.538 23.652,-18.675 9.3,-8.52 20.013,-21.333 19.155,-34.656 1.077,-0.726 1.899,-1.806 1.944,-2.892 0.402,-0.231 0.651,-0.597 0.594,-1.152 -0.738,-7.047 -9.087,-14.127 -12.885,-19.926 m -884.589,-0.567 c -28.401,12.075 -62.112,10.809 -114.339,-12.924 11.55,21.357 34.431,40.572 74.868,56.457 17.376,-13.959 31.173,-28.389 39.471,-43.533 m -32.82,-55.215 c 10.116,-7.05 16.032,-13.803 20.466,-17.622 -31.614,5.475 -58.155,-8.718 -84.693,-22.911 12.891,24.606 32.601,40.329 64.227,40.533 m 1.764,-65.556 c 10.944,-8.184 16.641,-14.469 18.702,-19.437 -24.468,10.599 -46.581,12.036 -65.991,2.52 6.501,14.535 19.929,22.416 47.289,16.917 m 203.886,114.897 c 16.989,-0.462 27.864,2.811 44.085,5.64 -23.997,1.878 -82.815,15.54 -120.222,59.211 l 130.191,-6.123 c -16.791,-9.738 -41.157,-15.744 -76.317,-16.434 41.301,-17.487 85.077,-32.223 138.951,-36.495 0,0 -17.787,-12.261 -68.841,-14.259 21.057,-11.394 50.7,-23.025 107.313,-23.64 -45.906,-18.15 -124.251,-9.438 -155.16,32.1 M 186.333,353.679 c 21.642,-13.701 88.887,-36.024 143.184,-35.007 -45.549,-10.884 -124.599,-8.535 -192.591,45.975 28.23,18.798 93.948,21.72 166.104,26.787 z M 460.887,213.48 c 43.098,-27.477 81.639,-28.812 139.62,-42.102 -45.984,-10.911 -149.265,-2.484 -222.903,57.978 102.105,29.793 137.865,33.69 220.914,33.69 -37.176,-19.839 -80.604,-37.293 -137.631,-49.566"
         inkscape:connector-curvature="0"
         style="fill:#300c00" />
    </g>
    <path
       id="path91852"
       d="m 746.97,270.213 c -40.932,7.806 -45.606,40.836 -38.814,70.02 8.55,20.625 35.049,17.034 51.048,0 10.938,-27.021 7.653,-60.99 -12.234,-70.02"
       inkscape:connector-curvature="0"
       style="fill:#f46262" />
    <g
       id="g91856"
       clip-path="url(#Clip_3)"
       style="opacity:0.5">
      <path
         id="path91854"
         d="m 715.689,287.133 c -1.899,7.356 -2.364,15.276 -2.193,21.996 0.279,10.884 4.833,26.232 18.582,24.213 11.049,-1.623 19.398,-11.256 24.531,-21.336 0.861,-5.247 1.152,-10.572 1.053,-15.618 -0.153,-7.911 -1.086,-16.605 -5.328,-22.827 -1.635,-1.332 -3.417,-2.463 -5.364,-3.348 -14.757,2.814 -24.792,8.91 -31.281,16.92"
         inkscape:connector-curvature="0"
         style="fill:#ff8f8f" />
    </g>
    <path
       id="path91858"
       d="m 1042.014,407.964 c -3.474,-0.615 -15.48,-0.231 -17.895,0.195 -37.527,6.042 -2.271,56.85 6.678,58.875 10.506,2.376 18.483,-2.607 24.12,-11.052 7.212,-10.803 14.865,-38.091 -12.903,-48.018"
       inkscape:connector-curvature="0"
       style="fill:#5b5d60" />
    <path
       id="path91860"
       d="m 1047.393,433.044 c -0.369,-0.408 -0.738,-0.819 -1.131,-1.215 -9.399,-9.435 -23.706,-13.44 -37.458,-13.965 -7.758,16.596 15.039,47.598 21.993,49.17 2.325,0.528 4.521,0.675 6.6,0.519 7.041,-7.407 12.111,-16.35 11.499,-26.79 -0.153,-2.61 -0.675,-5.208 -1.503,-7.719"
       inkscape:connector-curvature="0"
       style="fill:#3c3c3b" />
    <g
       id="g91864"
       clip-path="url(#Clip_4)"
       style="opacity:0.3">
      <path
         id="path91862"
         d="m 1041.048,419.721 c 0,2.895 -4.698,5.241 -10.494,5.241 -5.799,0 -10.497,-2.346 -10.497,-5.241 0,-2.895 4.698,-5.241 10.497,-5.241 5.796,0 10.494,2.346 10.494,5.241"
         inkscape:connector-curvature="0"
         style="fill:#f6f6f6" />
    </g>
    <path
       id="path91866"
       d="m 625.338,168.708 c -76.932,0 -160.557,25.968 -193.389,48.399 70.764,11.895 123.288,27.897 166.569,45.957 -37.635,-25.53 -94.917,-48.708 -132.69,-50.187 36.828,-19.95 95.973,-31.974 159.51,-44.169 M 350.076,316.029 c -79.995,-1.422 -126.576,14.337 -184.92,42.534 57.057,9.387 89.397,17.622 137.871,32.889 -48.036,-24.036 -78.414,-32.016 -103.992,-35.709 37.437,-14.691 58.581,-28.674 151.041,-39.714 m 379.014,35.484 c -13.905,0 -20.934,-14.646 -20.934,-36.189 0,-21.54 22.557,-43.236 36.462,-43.236 13.905,0 18.111,24.513 18.111,46.056 0,21.54 -19.734,33.369 -33.639,33.369 m 15.528,-83.655 c -17.997,0 -43.521,23.472 -43.521,47.466 0,26.673 11.589,43.239 27.993,43.239 16.404,0 39.285,-15.381 39.285,-40.419 0,-32.424 -8.442,-50.286 -23.757,-50.286 M 372.663,439.383 c 26.775,-17.325 61.572,-20.751 115.749,-23.964 -51.183,-4.71 -92.289,0.915 -138.336,28.194 39.243,0.366 61.686,-0.93 76.227,9.531 -47.319,-0.831 -107.043,17.256 -151.083,42.63 49.08,-0.648 76.929,3.624 100.263,12.042 -9.639,-10.899 -41.175,-20.964 -71.988,-17.679 34.611,-18.681 82.224,-29.337 141.159,-34.143 -15.669,-10.476 -34.896,-20.049 -71.991,-16.611 m -173.628,-83.64 c 37.437,-14.691 58.581,-28.674 151.041,-39.714 -79.995,-1.422 -126.576,14.337 -184.92,42.534 57.057,9.387 89.397,17.622 137.871,32.889 -48.036,-24.036 -78.414,-32.016 -103.992,-35.709 m 151.041,87.87 c 39.243,0.366 61.686,-0.93 76.227,9.531 -47.319,-0.831 -107.043,17.256 -151.083,42.63 49.08,-0.648 76.929,3.624 100.263,12.042 -9.639,-10.899 -41.175,-20.964 -71.988,-17.679 34.611,-18.681 82.224,-29.337 141.159,-34.143 -15.669,-10.476 -34.896,-20.049 -71.991,-16.611 26.775,-17.325 61.572,-20.751 115.749,-23.964 -51.183,-4.71 -92.289,0.915 -138.336,28.194 M 465.828,212.877 c 36.828,-19.95 95.973,-31.974 159.51,-44.169 -76.932,0 -160.557,25.968 -193.389,48.399 70.764,11.895 123.288,27.897 166.569,45.957 -37.635,-25.53 -94.917,-48.708 -132.69,-50.187 M 729.09,351.513 c -13.905,0 -20.934,-14.646 -20.934,-36.189 0,-21.54 22.557,-43.236 36.462,-43.236 13.905,0 18.111,24.513 18.111,46.056 0,21.54 -19.734,33.369 -33.639,33.369 m 15.528,-83.655 c -17.997,0 -43.521,23.472 -43.521,47.466 0,26.673 11.589,43.239 27.993,43.239 16.404,0 39.285,-15.381 39.285,-40.419 0,-32.424 -8.442,-50.286 -23.757,-50.286 m 310.665,167.904 c -1.851,6.441 -4.095,12.264 -6.495,17.1 -6.198,13.8 -24.054,29.733 -37.719,-27.405 0,-21.81 34.008,-14.859 42.195,-1.383 2.187,3.906 3.189,7.656 2.019,11.688 m -65.994,92.409 c -49.11,3.639 -82.791,17.286 -118.332,-31.692 12.408,46.932 59.724,46.833 110.385,42.168 -54.417,41.841 -158.001,63.201 -223.299,33.285 9.033,-0.072 18.222,-0.564 27.513,-1.44 -49.056,-7.401 -104.814,-8.103 -134.103,-47.931 28.512,-6.216 48.12,-20.739 59.991,-38.064 -42.642,-6.345 -66.345,-11.982 -100.224,-31.014 35.109,-4.047 69.987,-15.225 104.46,-39.474 -46.047,-4.329 -88.311,-13.293 -131.28,-32.424 46.02,-6.81 79.095,-14.805 97.401,-24.165 8.316,11.139 21.06,21.372 39.498,29.79 -1.836,-1.269 -89.61,-62.553 0.972,-136.734 89.637,-62.496 53.643,87.87 53.643,87.87 84.567,-67.26 139.746,-57.096 188.208,-1.875 14.58,19.737 13.407,27.027 7.524,54.036 -3.207,12.942 19.506,12.393 36.897,21.513 -2.415,2.85 -4.305,6.501 -5.616,11.097 -4.659,16.266 16.428,47.352 32.718,52.02 0.072,0 0.129,0.042 0.198,0.057 -7.467,25.599 -28.839,48.861 -46.554,52.977 m -220.674,138.186 4.941,-21.144 c -29.361,16.887 -58.737,29.391 -88.14,33.96 -9.021,-7.062 -16.842,-14.181 -20.793,-20.808 -16.926,-7.104 -49.632,-11.037 -86.22,-3.99 5.997,-19.101 15.669,-38.544 51.522,-58.929 -42.462,-13.674 -93.87,0.438 -153.159,20.865 8.808,-20.358 38.523,-37.725 82.578,-57.801 -51.987,-21.147 -138.447,-25.614 -209.268,-6.342 92.148,-8.7 141.159,-7.515 185.979,8.457 -36.348,9.912 -66.234,43.941 -82.227,71.193 50.337,-16.254 111.984,-36.372 153.864,-31.368 -29.868,11.505 -36.759,36.303 -45.876,62.031 42.855,-3.849 75.633,-3.708 93.378,2.367 11.178,12.21 24.504,22.542 40.002,30.975 25.635,4.947 19.848,37.512 4.716,37.725 l -14.046,-1.452 c 8.667,-15.972 3.417,-49.188 -31.83,-37.077 37.887,-2.34 31.053,36.429 14.115,36.654 l -10.191,0 c 6.705,-14.478 -0.861,-41.307 -34.98,-29.589 37.167,-2.298 34.005,28.182 17.871,29.547 l -35.274,-0.408 c -30.111,-0.945 -69.255,-52.755 -83.751,-105.735 -0.948,20.049 7.014,47.229 20.283,70.08 -180.711,14.847 -325.95,6.615 -466.35,-180.507 14.724,-3.327 30.111,-15.987 44.226,-28.674 -34.089,-13.899 -62.688,-15.438 -87.519,-45.579 25.41,-2.115 59.64,-20.793 81.519,-42.291 -32.283,-14.973 -47.655,-21.921 -64.227,-40.533 20.286,-0.351 45.525,-6.696 65.994,-25.023 -21.414,-3.636 -33.342,-8.457 -47.289,-16.917 19.761,-16.563 64.212,-50.976 105.516,-69.783 -16.938,-4.935 -49.293,-5.469 -68.109,-1.41 47.64,-53.925 113.874,-60.789 209.622,-104.322 -21.528,-6.513 -38.256,-11.886 -61.872,-12.054 72.021,-34.371 158.565,-100.023 452.178,18.327 -8.229,-19.344 -19.254,-44.382 -41.403,-67.359 88.932,16.86 117.093,47.805 154.797,78.003 13.89,-19.737 20.553,-36.135 16.941,-60.621 21.384,24.234 27.765,50.286 35.289,97.74 35.064,-23.022 60.231,-58.266 62.589,-89.748 15.006,25.686 14.061,50.739 9.897,81.36 -6.564,9.078 -12.465,19.341 -17.433,30.945 27.06,-25.08 51.297,-56.856 83.763,-70.956 -42.489,36.048 -64.284,109.863 -70.623,153.045 -45.282,-32.763 -86.43,-28.986 -143.94,10.956 16.572,-127.503 -58.116,-89.043 -90.582,-63.906 -23.715,18.354 -48.318,62.706 -29.757,100.614 -19.917,12.126 -61.122,22.374 -109.284,33.315 40.074,20.793 76.224,36.3 123.513,36.654 -16.317,17.169 -53.019,24.432 -95.283,35.244 33.201,29.04 66.993,38.67 100.929,36.654 -3.966,14.28 -30.816,22.218 -62.814,29.604 28.287,37.515 68.661,51.627 113.562,53.403 18.309,16.044 52.752,24.771 91.386,25.095 -28.725,14.097 -48.108,35.385 -68.73,69.528 m 53.16,9.504 c -3.375,-0.282 -7.2,0.069 -11.52,1.239 35.532,2.412 28.404,30.972 -2.355,31.551 l -15.402,-1.14 -0.042,-0.03 -28.782,-2.127 c -16.572,-1.044 -27.117,-16.791 -31.818,-28.743 10.488,-4.569 20.865,-10.365 31.113,-17.313 l -4.236,33.129 c 11.673,-15.777 23.463,-30.411 35.952,-43.632 5.592,9.066 15.474,18.072 27.09,27.054 m 7.044,1.536 c 24.732,2.976 27.018,24.204 9.528,30.801 5.295,-9.909 2.487,-25.584 -9.753,-30.732 z m 19.791,32.508 c 5.589,-8.22 8.991,-21.822 0.762,-29.139 17.619,7.26 23.22,25.728 -0.762,29.139 m -547.473,1.65 -14.046,-1.437 c 2.553,-4.737 3.894,-10.968 3.585,-17.088 7.524,2.397 15.078,4.596 22.656,6.597 -1.638,6.6 -6.141,11.844 -12.195,11.928 m -31.761,-1.86 -10.194,-0.03 c 6.705,-14.475 -0.861,-41.304 -34.977,-29.577 37.167,-2.31 34.005,28.167 17.871,29.538 l -35.277,-0.411 c -24.942,0.48 -61.644,-39.093 -72.402,-105.198 46.443,41.04 96.54,68.754 148.458,86.421 0.906,9.417 -5.01,19.131 -13.479,19.257 m 768.615,-508.563 c -60.063,34.131 -64.809,85.305 -71.85,120.834 -7.455,-7.32 -14.712,-13.746 -21.852,-19.26 3.612,-30.054 11.574,-59.844 27.567,-90.225 27.852,-15.717 46.356,-15.903 66.135,-11.349 m -55.506,141.921 c -2.457,-4.455 -5.52,-8.994 -9.189,-13.785 3.078,-22.161 7.905,-41.208 15.909,-58.056 24.054,1.284 30.687,54.207 -6.72,71.841 m 53.754,61.086 c -5.871,-0.633 -11.124,-0.507 -15.684,0.636 -16.824,-7.077 -37.632,-8.289 -33.849,-18.96 4.179,-14.295 6.804,-22.827 2.655,-33.993 30.672,-6.891 48.15,-80.835 6.759,-88.518 13.935,-24.897 33.063,-44.97 68.223,-63.579 -20.82,-13.746 -35.571,-19.035 -67.827,-13.071 14.64,-23.724 18.957,-38.034 45.708,-63.057 -27.354,6.582 -54.501,5.637 -79.869,31.593 2.541,-33.837 -16.077,-56.307 -29.289,-74.832 -3.486,18.963 -24.237,57.576 -49.407,74.718 C 886.95,126.18 850.938,95.403 823.905,68.616 825.657,95.304 822,103.989 814.62,120.399 780.543,86.958 715.623,64.02 622.047,51.234 c 21.924,23.742 36.915,39.645 42.348,56.856 -133.281,-66.963 -323.142,-79.65 -453.12,27.732 23.742,-1.41 32.31,4.935 50.577,8.457 -85.404,22.488 -161.799,61.212 -203.271,125.229 26.58,-7.683 46.935,-11.982 62.817,-11.982 -38.721,15.861 -71.64,49.695 -88.932,66.966 18.351,9.15 29.094,12.729 46.23,13.041 -12.522,9.162 -19.761,7.935 -57.876,10.218 20.526,34.92 25.761,50.922 56.466,57.801 C 61.149,420.357 39.567,421.878 0,430.929 c 28.938,30.267 40.23,48.285 76.227,58.746 -7.764,7.98 -11.76,15.027 -34.824,17.847 22.713,32.988 49.743,61.212 75.123,85.278 l 0.876,10.686 c -0.03,46.494 45.384,118.194 74.814,117.489 9.501,0.438 50.466,4.695 58.581,0 7.413,2.187 21.402,3.99 31.353,0.213 7.947,3.537 24.519,2.241 29.814,0.237 5.787,-1.959 11.319,-11.727 13.848,-19.692 76.098,18.666 147.948,18.087 224.133,8.148 12.717,17.691 30.138,31.662 42.459,31.662 9.501,0.438 49.053,4.71 57.171,0 7.41,2.199 21.399,4.005 31.35,0.228 7.947,3.537 20.187,1.944 25.581,0.237 16.797,-4.848 20.352,-34.722 4.431,-46.182 -3.912,-2.805 -7.989,-5.694 -12.027,-8.628 6.591,-1.017 10.305,-2.538 16.797,-4.542 8.67,12 24.858,37.896 40.851,37.896 9.459,-0.564 39.342,0.168 63.51,0 4.629,0.03 11.646,-2.37 16.092,-2.397 5.124,0.03 10.218,0.03 15.033,0 25.083,0.03 31.407,-38.823 -2.061,-43.998 -5.772,-0.903 -11.406,-2.538 -16.614,-5.175 -3.825,-1.929 -7.722,-4.395 -12.24,-8.034 -6.942,-6.021 -12.831,-12.816 -17.064,-20.85 19.407,-19.527 37.815,-32.808 62.97,-44.523 51.411,-4.932 98.571,-19.947 129.276,-55.854 20.988,-1.467 50.916,-34.92 56.715,-70.446 7.371,-7.824 12.636,-21.216 15.486,-31.185 4.674,-16.254 -9.909,-31.605 -31.422,-33.948 M 199.035,355.746 c 37.437,-14.691 58.581,-28.674 151.041,-39.714 -79.995,-1.422 -126.576,14.337 -184.92,42.534 57.057,9.387 89.397,17.622 137.871,32.889 -48.036,-24.036 -78.414,-32.016 -103.992,-35.709 m 151.041,87.87 c 39.243,0.366 61.686,-0.93 76.227,9.531 -47.319,-0.831 -107.043,17.256 -151.083,42.63 49.08,-0.648 76.929,3.624 100.263,12.042 -9.639,-10.899 -41.175,-20.964 -71.988,-17.679 34.611,-18.681 82.224,-29.337 141.159,-34.143 -15.669,-10.476 -34.896,-20.049 -71.991,-16.611 26.775,-17.325 61.572,-20.751 115.749,-23.964 -51.183,-4.71 -92.289,0.915 -138.336,28.194 M 625.338,168.711 c -76.932,0 -160.557,25.968 -193.389,48.399 70.764,11.895 123.288,27.897 166.569,45.957 -37.635,-25.53 -94.917,-48.708 -132.69,-50.187 36.828,-19.95 95.973,-31.974 159.51,-44.169 M 729.09,351.516 c -13.905,0 -20.934,-14.646 -20.934,-36.189 0,-21.54 22.557,-43.236 36.462,-43.236 13.905,0 18.111,24.513 18.111,46.056 0,21.54 -19.734,33.369 -33.639,33.369 m 15.528,-83.655 c -17.997,0 -43.521,23.472 -43.521,47.466 0,26.673 11.589,43.239 27.993,43.239 16.404,0 39.285,-15.381 39.285,-40.419 0,-32.424 -8.442,-50.286 -23.757,-50.286"
       inkscape:connector-curvature="0"
       style="fill:#4c2311" />
    <path
       id="path91868"
       d="m 848.61,709.905 c 5.592,-8.22 8.991,-21.822 0.762,-29.139 17.619,7.26 23.223,25.728 -0.762,29.139 m -10.263,-1.707 c 5.295,-9.909 2.487,-25.584 -9.753,-30.732 l 0.225,-0.069 c 24.732,2.976 27.018,24.204 9.528,30.801 m 10.785,-34.044 c -5.772,-0.903 -11.406,-2.538 -16.614,-5.175 -3.825,-1.929 -7.722,-4.398 -12.237,-8.034 -6.945,-6.021 -12.834,-12.816 -17.067,-20.85 0.564,-0.57 -10.911,11.232 -8.526,8.712 5.589,9.063 15.471,18.072 27.087,27.054 -3.372,-0.285 -7.197,0.069 -11.517,1.239 35.529,2.412 28.401,30.972 -2.358,31.551 l -15.402,-1.143 -0.042,-0.03 -28.782,-2.127 c -16.572,-1.044 -27.117,-16.791 -31.818,-28.746 0.525,-0.228 -17.166,6.348 -16.149,6.033 8.67,12 24.861,37.896 40.854,37.896 9.456,-0.564 39.339,0.168 63.507,0 4.629,0 11.646,-2.37 16.092,-2.397 5.124,0 10.218,0 15.033,0 25.083,0.03 31.41,-38.826 -2.061,-43.998 m 206.151,-238.392 c -1.851,6.441 -4.095,12.264 -6.495,17.1 -6.195,13.8 -24.054,29.733 -37.716,-27.405 0,-21.81 34.005,-14.859 42.192,-1.383 2.187,3.906 3.189,7.656 2.019,11.688 m -19.044,-31.623 c -5.871,-0.633 -11.124,-0.507 -15.684,0.636 -16.824,-7.077 -37.632,-8.289 -33.849,-18.963 4.179,-14.295 6.804,-22.824 2.655,-33.99 30.675,-6.894 48.15,-80.835 6.762,-88.521 1.692,-3.021 -7.779,9.723 -6.918,7.911 24.054,1.284 30.687,54.207 -6.72,71.841 -2.454,-4.455 -5.517,-8.994 -9.186,-13.788 l -7.158,-7.302 c -7.455,-7.317 -14.712,-13.746 -21.852,-19.257 l -4.674,-3.51 c -45.282,-32.763 -86.43,-28.986 -143.94,10.953 16.572,-127.5 -58.116,-89.04 -90.582,-63.903 -23.715,18.354 -48.318,62.706 -29.757,100.614 l 6.465,10.56 c 8.316,11.136 21.06,21.372 39.498,29.787 -1.836,-1.269 -89.61,-62.55 0.972,-136.731 89.637,-62.496 53.643,87.87 53.643,87.87 84.57,-67.26 139.746,-57.096 188.208,-1.875 14.58,19.737 13.41,27.024 7.524,54.036 -3.204,12.942 19.509,12.393 36.9,21.513 -2.415,2.847 -4.308,6.498 -5.619,11.097 -4.659,16.266 16.431,47.352 32.718,52.02 0.072,0 0.129,0.042 0.201,0.057 -7.467,25.599 -28.839,48.861 -46.554,52.977 -49.113,3.636 -82.791,17.286 -118.335,-31.692 12.408,46.932 59.724,46.833 110.385,42.168 -54.417,41.841 -157.998,63.198 -223.299,33.282 -5.436,0.198 -6.915,0.099 -12.084,-0.195 18.309,16.044 52.752,24.768 91.386,25.092 l 28.839,-1.254 c 51.411,-4.935 98.574,-19.947 129.276,-55.854 20.988,-1.467 50.916,-34.92 56.715,-70.446 7.371,-7.824 12.636,-21.216 15.489,-31.185 4.671,-16.254 -9.912,-31.608 -31.425,-33.948 M 313.332,699.612 c -1.638,6.6 -6.141,11.844 -12.195,11.928 l -14.046,-1.437 c 2.556,-4.737 3.897,-10.971 3.585,-17.088 0.693,0.222 -10.608,-3.543 -7.818,-2.595 0.903,9.417 -5.013,19.134 -13.482,19.26 l -10.191,-0.03 c 4.089,-8.829 2.853,-22.236 -6.456,-28.707 -2.748,-1.608 -2.748,-1.608 -6.429,-2.913 -5.589,-1.464 -12.861,-1.131 -22.095,2.043 37.167,-2.313 34.005,28.167 17.871,29.535 L 206.799,709.2 c -24.942,0.48 -61.644,-39.093 -72.399,-105.198 -8.154,-5.061 -19.932,-13.173 -17.871,-11.22 l 0.873,10.686 c -0.03,46.491 45.384,118.194 74.817,117.489 9.498,0.438 50.463,4.695 58.581,0 7.41,2.184 21.399,3.99 31.35,0.21 7.947,3.54 24.519,2.244 29.814,0.24 5.787,-1.959 11.322,-11.727 13.848,-19.692 0.945,0.231 -13.659,-2.415 -12.48,-2.103 m 397.605,-3.804 c -3.909,-2.805 -7.989,-5.697 -12.027,-8.628 -13.494,-8.025 -13.494,-8.025 -21.948,-15.027 -5.571,-4.812 -7.053,-6.876 -12.339,-13.803 -1.614,1.914 -5.229,4.998 -9.429,6.483 4.341,4.539 7.08,7.296 11.241,10.968 8.583,7.548 18.15,14.235 28.764,20.007 25.632,4.947 19.845,37.512 4.713,37.725 l -14.046,-1.455 c 8.67,-15.972 3.417,-49.185 -31.83,-37.074 37.887,-2.343 31.053,36.426 14.115,36.654 l -10.191,0 c 6.705,-14.478 -0.861,-41.307 -34.98,-29.592 37.167,-2.298 34.005,28.182 17.871,29.55 l -35.274,-0.408 c -30.111,-0.945 -69.255,-52.755 -83.751,-105.735 -0.945,20.046 7.017,47.229 20.283,70.08 l 7.836,14.325 c 12.717,17.691 30.138,31.662 42.462,31.662 9.498,0.438 49.05,4.71 57.168,0 7.41,2.199 21.399,4.005 31.35,0.225 7.947,3.54 20.187,1.947 25.581,0.24 16.797,-4.851 20.355,-34.722 4.431,-46.182 m 18.153,-344.31 c -13.905,0 -20.934,-14.646 -20.934,-36.189 0,-21.543 22.557,-43.239 36.462,-43.239 13.905,0 18.111,24.516 18.111,46.059 0,21.54 -19.734,33.369 -33.639,33.369 m 39.285,-33.369 c 0,-32.427 -8.442,-50.286 -23.757,-50.286 -17.997,0 -43.518,23.472 -43.518,47.466 0,26.673 11.589,43.236 27.99,43.236 16.404,0 39.285,-15.381 39.285,-40.416"
       inkscape:connector-curvature="0"
       style="fill:#c87e37;fill-opacity:1" />
    <path
       id="path91870"
       d="m 729.09,351.513 c -13.905,0 -20.934,-14.646 -20.934,-36.189 0,-21.543 22.557,-43.239 36.462,-43.239 13.905,0 18.111,24.516 18.111,46.059 0,21.54 -19.734,33.369 -33.639,33.369 m 15.528,-83.655 c -17.997,0 -43.521,23.475 -43.521,47.466 0,26.673 11.589,43.236 27.993,43.236 16.404,0 39.285,-15.381 39.285,-40.416 0,-32.427 -8.442,-50.286 -23.757,-50.286"
       inkscape:connector-curvature="0"
       style="fill:#c12d2d" />
    <path
       id="path91872"
       d="m 1053.264,424.074 c 2.187,3.906 3.189,7.656 2.019,11.688 -1.851,6.441 -4.095,12.264 -6.495,17.1 -6.195,13.8 -24.054,29.733 -37.716,-27.405 0,-21.81 34.005,-14.859 42.192,-1.383 m -50.337,-0.957 c -4.659,16.266 16.431,47.352 32.718,52.02 0.072,0.03 0.129,0.042 0.201,0.057 5.505,0.738 11.784,-2.076 16.329,-5.922 7.371,-7.824 12.636,-21.216 15.489,-31.185 4.671,-16.254 -9.912,-31.605 -31.425,-33.948 -5.871,-0.633 -11.124,-0.507 -15.684,0.636 -8.115,2.802 -12.009,7.245 -12.009,7.245 -2.415,2.85 -4.308,6.501 -5.619,11.097"
       inkscape:connector-curvature="0"
       style="fill:#2d2d2d" />
    <path
       id="path91874"
       d="M 633.807,138.159 376.629,130.194 C 356.133,118.917 334.536,108.921 311.892,100.788 279.441,89.112 244.869,81.288 208.452,79.062 282.843,51.654 311.652,48.765 374.652,61.452 363.195,43.263 348.636,26.649 322.311,16.917 376.431,16.482 450.3,44.184 503.349,85.884 l 5.928,1.143 C 495.795,54.885 488.607,20.898 459.714,0.003 c 83.073,30.237 122.457,69.105 156.591,114.135 0,0.03 0,0.042 0,0.042 5.928,7.809 11.688,15.804 17.49,23.979"
       inkscape:connector-curvature="0"
       style="fill:#7f4c2f" />
    <g
       id="g91878"
       clip-path="url(#Clip_5)"
       style="opacity:0.2">
      <path
         id="path91876"
         d="m 363.486,30.087 c 65.25,30.84 106.956,68.316 127.749,111.675 8.193,-13.821 16.404,-34.905 18.816,-47.529 C 474.615,51.207 425.685,29.946 363.486,30.087 M 705.798,146.79 670.02,132.597 616.302,114.138 C 585.015,72.393 542.637,35.409 497.856,28.029 622.278,149.91 584.4,146.094 742.83,178.14 733.518,170.817 720,168.708 705.798,146.79"
         inkscape:connector-curvature="0"
         style="fill:#ffffff" />
    </g>
    <path
       id="path91880"
       d="m 497.856,28.026 c 10.431,16.269 17.262,48.102 12.195,66.204 -40.809,-30.057 -63.987,-43.182 -146.565,-64.146 20.043,18.798 24.798,28.071 36.348,50.16 -52.935,-17.271 -93.984,-21.498 -143.868,-6.936 39.396,3.582 55.656,8.655 79.089,18.834 l -23.163,8.643 C 279.441,89.112 244.869,81.288 208.449,79.062 282.84,51.654 303.846,49.173 367.593,57.222 355.194,37.989 344.478,30.801 322.308,16.917 c 66,-1.452 107.751,8.772 170.7,41.823 0,0 -9.039,-36.405 -33.294,-58.74 66.813,19.038 120.717,55.494 150.003,86.586 10.02,10.635 -2.112,16.071 6.585,27.549 0,0.03 0,0.042 0,0.042 C 575.733,81.048 544.479,47.946 497.841,28.026"
       inkscape:connector-curvature="0"
       style="fill:#4c2311" />
    <path
       id="path91882"
       d="m 918.078,389.403 c 0,-25.074 -18.012,-38.835 -43.119,-38.835 -28.941,0 -53.601,16.449 -53.601,39.3 0,40.353 24.66,49.668 49.848,49.473 25.107,0 46.872,-17.814 46.872,-49.938"
       inkscape:connector-curvature="0"
       style="fill:#7f4c2f" />
    <path
       id="path91884"
       d="m 910.359,389.967 c 0,-22.599 -9.876,-32.46 -32.502,-32.46 -22.626,0 -50.85,14.091 -50.85,36.69 0,22.599 19.755,39.507 42.381,39.507 22.626,0 40.971,-21.138 40.971,-43.737"
       inkscape:connector-curvature="0"
       style="fill:#002d12" />
    <path
       id="path91886"
       d="m 872.988,385.137 c 0,-0.03 0,-0.045 0,-0.069 0,-9.363 -7.599,-16.953 -16.974,-16.953 -9.378,0 -16.977,7.59 -16.977,16.953 0,9.366 7.599,16.956 16.977,16.956 1.989,0 3.894,-0.363 5.673,-0.99 1.872,2.769 5.049,4.59 8.646,4.59 5.763,0 10.431,-4.668 10.431,-10.419 0,-4.839 -3.303,-8.895 -7.779,-10.068"
       inkscape:connector-curvature="0"
       style="fill:#f6f6f6" />
    <path
       id="path91888"
       d="m 827.052,332.871 c -1.587,8.049 25.026,3.351 52.188,2.073 14.505,-0.684 37.239,5.652 37.965,1.98 2.079,-10.554 -6.717,-25.596 -23.829,-28.959 -27.417,-5.421 -63.891,12.561 -66.324,24.906"
       inkscape:connector-curvature="0"
       style="fill:#7f4c2f" />
    <g
       id="g91900"
       clip-path="url(#Clip_6)"
       style="opacity:0.5">
      <path
         id="path91890"
         d="m 802.428,440.892 c 0,4.653 -3.777,8.427 -8.439,8.427 -4.656,0 -8.436,-3.774 -8.436,-8.427 0,-4.653 3.78,-8.427 8.436,-8.427 4.662,0 8.439,3.774 8.439,8.427"
         inkscape:connector-curvature="0"
         style="fill:#e5644e" />
      <path
         id="path91892"
         d="m 777.189,468.09 c 0,3.987 -3.237,7.221 -7.23,7.221 -3.993,0 -7.23,-3.234 -7.23,-7.221 0,-3.987 3.237,-7.221 7.23,-7.221 3.993,0 7.23,3.234 7.23,7.221"
         inkscape:connector-curvature="0"
         style="fill:#e5644e" />
      <path
         id="path91894"
         d="m 821.358,484.764 c 0,5.22 -4.236,9.453 -9.465,9.453 -5.226,0 -9.465,-4.233 -9.465,-9.453 0,-5.22 4.239,-9.453 9.465,-9.453 5.229,0 9.465,4.233 9.465,9.453"
         inkscape:connector-curvature="0"
         style="fill:#e5644e" />
      <path
         id="path91896"
         d="m 750.264,420.705 c 0,2.919 -2.37,5.286 -5.295,5.286 -2.922,0 -5.292,-2.367 -5.292,-5.286 0,-2.919 2.37,-5.286 5.292,-5.286 2.925,0 5.295,2.367 5.295,5.286"
         inkscape:connector-curvature="0"
         style="fill:#e5644e" />
      <path
         id="path91898"
         d="m 858.957,470.874 c 0,2.724 -2.211,4.935 -4.941,4.935 -2.73,0 -4.941,-2.211 -4.941,-4.935 0,-2.724 2.211,-4.935 4.941,-4.935 2.73,0 4.941,2.211 4.941,4.935"
         inkscape:connector-curvature="0"
         style="fill:#e5644e" />
    </g>
  </g>
</svg>
