<?xml version="1.0" encoding="UTF-8" standalone="no"?>
<!-- Generator: Adobe Illustrator 15.0.1, SVG Export Plug-In . SVG Version: 6.00 Build 0)  -->

<svg
   xmlns:dc="http://purl.org/dc/elements/1.1/"
   xmlns:cc="http://creativecommons.org/ns#"
   xmlns:rdf="http://www.w3.org/1999/02/22-rdf-syntax-ns#"
   xmlns:svg="http://www.w3.org/2000/svg"
   xmlns="http://www.w3.org/2000/svg"
   xmlns:sodipodi="http://sodipodi.sourceforge.net/DTD/sodipodi-0.dtd"
   xmlns:inkscape="http://www.inkscape.org/namespaces/inkscape"
   version="1.1"
   id="Layer_1"
   x="0px"
   y="0px"
   width="363.69101"
   height="512"
   viewBox="0 0 363.69101 512"
   enable-background="new 0 0 512 512"
   xml:space="preserve"
   inkscape:version="0.91 r13725"
   sodipodi:docname="html.svg"><metadata
     id="metadata36"><rdf:RDF><cc:Work
         rdf:about=""><dc:format>image/svg+xml</dc:format><dc:type
           rdf:resource="http://purl.org/dc/dcmitype/StillImage" /><dc:title></dc:title></cc:Work></rdf:RDF></metadata><defs
     id="defs34" /><sodipodi:namedview
     pagecolor="#ffffff"
     bordercolor="#666666"
     borderopacity="1"
     objecttolerance="10"
     gridtolerance="10"
     guidetolerance="10"
     inkscape:pageopacity="0"
     inkscape:pageshadow="2"
     inkscape:window-width="1920"
     inkscape:window-height="1137"
     id="namedview32"
     showgrid="false"
     fit-margin-top="0"
     fit-margin-left="0"
     fit-margin-right="0"
     fit-margin-bottom="0"
     inkscape:zoom="1.3037281"
     inkscape:cx="128.75817"
     inkscape:cy="248.79979"
     inkscape:window-x="-8"
     inkscape:window-y="-8"
     inkscape:window-maximized="1"
     inkscape:current-layer="Layer_1" /><g
     id="g3"
     transform="translate(-74.012,0)"><g
       id="g5"><g
         id="g7"><path
           d="m 108.382,0 23.077,0 0,22.8 21.11,0 0,-22.8 23.078,0 0,69.044 -23.077,0 0,-23.12 -21.11,0 0,23.12 -23.077,0 L 108.382,0 l 0,0 z"
           id="path9"
           inkscape:connector-curvature="0" /><path
           d="m 205.994,22.896 -20.316,0 0,-22.896 63.72,0 0,22.896 -20.325,0 0,46.148 -23.078,0 -0.001,-46.148 0,0 z"
           id="path11"
           inkscape:connector-curvature="0" /><path
           d="m 259.511,0 24.063,0 14.802,24.26 14.787,-24.26 24.072,0 0,69.044 -22.982,0 0,-34.222 -15.877,24.549 -0.397,0 -15.888,-24.549 0,34.222 -22.58,0 0,-69.044 z"
           id="path13"
           inkscape:connector-curvature="0" /><path
           d="m 348.72,0 23.084,0 0,46.222 32.453,0 0,22.822 -55.537,0 0,-69.044 z"
           id="path15"
           inkscape:connector-curvature="0" /></g></g></g><g
     id="Guides_to_delete"
     transform="translate(-74.012,0)"><g
       id="g18"><polygon
         points="437.703,99.297 404.549,470.755 255.769,512 107.125,470.727 74.012,99.297 "
         id="polygon20"
         style="fill:#e34e26" /><polygon
         points="404.51,129.657 255.857,129.657 255.857,480.449 376.164,447.101 "
         id="polygon22"
         style="fill:#ef662a" /><polygon
         points="311.936,312.978 306.637,372.066 255.799,385.811 205.057,372.085 201.664,334.146 155.937,334.146 162.476,407.282 255.787,433.199 349.219,407.282 361.744,267.429 195.706,267.429 191.538,220.777 365.732,220.777 365.873,220.777 369.953,175.217 141.761,175.217 154.041,312.978 "
         id="polygon24"
         style="fill:#ffffff" /><g
         id="g26"><polygon
           points="255.857,220.777 255.857,175.217 141.761,175.217 154.041,312.978 255.857,312.978 255.857,267.429 195.706,267.429 191.538,220.777 "
           id="polygon28"
           style="fill:#ebebeb" /><polygon
           points="255.857,433.179 255.857,385.791 255.799,385.811 205.057,372.085 201.664,334.146 155.937,334.146 162.476,407.282 255.787,433.199 "
           id="polygon30"
           style="fill:#ebebeb" /></g></g></g></svg>