<?xml version="1.0" encoding="UTF-8" standalone="no"?>
<!-- Generator: Adobe Illustrator 16.0.0, SVG Export Plug-In . SVG Version: 6.00 Build 0)  -->

<svg
   xmlns:dc="http://purl.org/dc/elements/1.1/"
   xmlns:cc="http://creativecommons.org/ns#"
   xmlns:rdf="http://www.w3.org/1999/02/22-rdf-syntax-ns#"
   xmlns:svg="http://www.w3.org/2000/svg"
   xmlns="http://www.w3.org/2000/svg"
   xmlns:sodipodi="http://sodipodi.sourceforge.net/DTD/sodipodi-0.dtd"
   xmlns:inkscape="http://www.inkscape.org/namespaces/inkscape"
   version="1.1"
   id="Vrstva_1"
   x="0px"
   y="0px"
   width="1604.402px"
   height="370.453px"
   viewBox="0 0 1604.402 370.453"
   enable-background="new 0 0 1604.402 370.453"
   xml:space="preserve"
   inkscape:version="0.91 r13725"
   sodipodi:docname="itnetwork.svg"><metadata
     id="metadata73"><rdf:RDF><cc:Work
         rdf:about=""><dc:format>image/svg+xml</dc:format><dc:type
           rdf:resource="http://purl.org/dc/dcmitype/StillImage" /><dc:title></dc:title></cc:Work></rdf:RDF></metadata><defs
     id="defs71" /><sodipodi:namedview
     pagecolor="#cdcdcd"
     bordercolor="#666666"
     borderopacity="1"
     objecttolerance="10"
     gridtolerance="10"
     guidetolerance="10"
     inkscape:pageopacity="0.42352941"
     inkscape:pageshadow="2"
     inkscape:window-width="1920"
     inkscape:window-height="1137"
     id="namedview69"
     showgrid="false"
     inkscape:zoom="0.48865559"
     inkscape:cx="885.96174"
     inkscape:cy="78.203039"
     inkscape:window-x="-8"
     inkscape:window-y="-8"
     inkscape:window-maximized="1"
     inkscape:current-layer="Vrstva_1" /><g
     id="g3"><g
       id="g5"><g
         id="g7"><path
           fill="#FFFFFF"
           d="M588.6,118.354c7.665,8.686,11.5,20.628,11.5,35.824v65.948h-34.807v-61.879     c0-7.598-2.004-13.535-6.005-17.81c-4.004-4.275-9.331-6.412-15.979-6.412c-7.057,0-12.652,2.239-16.792,6.717     c-4.142,4.479-6.208,10.858-6.208,19.134v60.25h-34.807v-113.58h34.807v20.764c3.257-6.784,8.106-12.145,14.556-16.081     c6.441-3.935,14.01-5.902,22.693-5.902C570.585,105.327,580.932,109.672,588.6,118.354z"
           id="path9"
           style="fill:#00386b;fill-opacity:1" /><path
           fill="#FFFFFF"
           d="M813.414,190.206v29.922h-15.672c-13.301,0-23.646-3.288-31.041-9.872     c-7.397-6.58-11.094-17.47-11.094-32.669v-41.728H740.34v-29.313h15.268V78.662h34.807v27.886h22.797v29.313h-22.797v42.338     c0,4.478,0.916,7.601,2.748,9.363c1.832,1.765,4.917,2.646,9.262,2.646L813.414,190.206L813.414,190.206z"
           id="path11"
           style="fill:#00386b;fill-opacity:1" /><path
           fill="#FFFFFF"
           d="M999.048,106.548l-29.105,113.58h-38.881l-20.559-76.127l-20.762,76.127h-38.877l-29.107-113.58h34.807     l15.063,81.826l21.17-81.826h37.045l21.779,82.03l15.063-82.03H999.048z"
           id="path13"
           style="fill:#00386b;fill-opacity:1" /><path
           fill="#FFFFFF"
           d="M1095.021,112.145c8.885,4.682,15.877,11.434,20.965,20.253c5.088,8.823,7.633,19.134,7.633,30.938     c0,11.806-2.545,22.12-7.633,30.939c-5.088,8.822-12.08,15.57-20.965,20.252c-8.893,4.683-18.967,7.021-30.229,7.021     c-11.266,0-21.373-2.341-30.33-7.021c-8.955-4.682-15.979-11.43-21.064-20.252c-5.092-8.819-7.635-19.134-7.635-30.939     c0-11.805,2.543-22.115,7.635-30.938c5.088-8.819,12.109-15.571,21.064-20.253c8.957-4.683,19.064-7.022,30.33-7.022     C1076.054,105.123,1086.128,107.464,1095.021,112.145z M1048,142.474c-4.549,4.817-6.82,11.772-6.82,20.862     c0,9.094,2.271,16.015,6.82,20.763c4.545,4.752,10.143,7.125,16.793,7.125c6.646,0,12.211-2.373,16.688-7.125     c4.479-4.748,6.718-11.669,6.718-20.763c0-9.09-2.238-16.045-6.718-20.862c-4.479-4.815-10.043-7.228-16.688-7.228     C1058.142,135.248,1052.544,137.659,1048,142.474z"
           id="path15"
           style="fill:#00386b;fill-opacity:1" /><path
           fill="#FFFFFF"
           d="M1193.33,111.433c6.852-4.071,14.281-6.106,22.289-6.106v37.249h-9.977     c-9.229,0-16.385,1.969-21.473,5.903c-5.09,3.937-7.633,10.584-7.633,19.948v51.699h-34.809v-113.58h34.809v21.373     C1180.878,121,1186.476,115.504,1193.33,111.433z"
           id="path17"
           style="fill:#00386b;fill-opacity:1" /><path
           fill="#FFFFFF"
           d="M1299.072,220.128l-33.992-48.24v48.24h-34.807V69.503h34.807v82.641l33.992-45.596h40.914l-45.799,56.79     l46.814,56.79H1299.072L1299.072,220.128z"
           id="path19"
           style="fill:#00386b;fill-opacity:1" /><path
           fill="#FFFFFF"
           d="M1484.308,117.234c9.904,8.075,16.146,19.169,18.729,33.28h-36.844     c-1.086-4.886-3.326-8.684-6.719-11.398c-3.393-2.713-7.668-4.071-12.82-4.071c-6.107,0-11.129,2.411-15.063,7.227     c-3.938,4.817-5.904,11.841-5.904,21.066c0,9.229,1.969,16.252,5.904,21.067c3.936,4.817,8.955,7.226,15.063,7.226     c5.152,0,9.43-1.354,12.82-4.068c3.393-2.713,5.633-6.516,6.719-11.398h36.844c-2.58,14.113-8.822,25.208-18.729,33.279     c-9.906,8.074-22.188,12.111-36.842,12.111c-11.129,0-21.002-2.343-29.617-7.022c-8.617-4.683-15.365-11.431-20.252-20.253     c-4.887-8.819-7.326-19.134-7.326-30.939c0-11.938,2.404-22.287,7.225-31.041c4.816-8.752,11.568-15.47,20.254-20.15     c8.682-4.683,18.59-7.022,29.719-7.022C1462.121,105.123,1474.4,109.163,1484.308,117.234z"
           id="path21"
           style="fill:#00386b;fill-opacity:1" /><path
           fill="#FFFFFF"
           d="M1551.884,191.02h52.518v29.106h-90.578v-27.479l48.852-57.196h-48.037v-28.904h87.729v27.479     L1551.884,191.02z"
           id="path23"
           style="fill:#00386b;fill-opacity:1" /><path
           fill="#FFFFFF"
           d="M730.979,160.285c0-10.854-2.342-20.457-7.021-28.803c-4.682-8.345-11.297-14.823-19.846-19.438     c-8.551-4.61-18.456-6.921-29.72-6.921c-11.129,0-21.034,2.341-29.719,7.022c-8.686,4.682-15.438,11.398-20.253,20.15     c-4.818,8.753-7.226,19.103-7.226,31.041c0,11.807,2.44,22.12,7.328,30.939c4.885,8.822,11.634,15.57,20.253,20.252     c8.613,4.683,18.485,7.022,29.614,7.022c9.496,0,18.115-1.798,25.853-5.395c7.733-3.595,14.111-8.55,19.133-14.859     c5.02-6.31,8.275-13.466,9.771-21.475h-36.844c-1.088,4.071-3.327,7.397-6.718,9.975c-3.394,2.579-7.668,3.867-12.823,3.867     c-6.104,0-11.128-1.863-15.063-5.599c-3.938-3.729-6.106-9.872-6.515-18.42h78.772     C730.639,166.258,730.979,163.135,730.979,160.285z M674.394,132.602c6.106,0,11.229,1.867,15.367,5.598     c2.951,2.663,4.795,6.292,5.572,10.854h-42.979c1.141-4.464,3.183-8.06,6.162-10.75     C662.721,134.504,668.014,132.602,674.394,132.602z"
           id="path25"
           style="fill:#00386b;fill-opacity:1" /></g><path
         fill="#FFFFFF"
         d="M91.596,15.994h78.512c50.588,0,91.596,41.01,91.596,91.597v81.42c0,50.589-41.008,91.597-91.596,91.597    H91.596C41.01,280.605,0,239.598,0,189.01v-81.42C0,57.004,41.01,15.994,91.596,15.994z"
         id="path27"
         style="fill:#00386b;fill-opacity:1" /><g
         id="g29"><g
           id="g31"><path
             fill="#EF6534"
             d="M345.264,61.463c3.798-3.461,8.819-5.189,15.063-5.189c6.24,0,11.262,1.729,15.063,5.189      c3.797,3.46,5.699,7.836,5.699,13.129c0,5.158-1.902,9.466-5.699,12.926c-3.801,3.46-8.822,5.189-15.063,5.189      c-6.244,0-11.266-1.729-15.063-5.189c-3.8-3.46-5.698-7.768-5.698-12.926C339.564,69.299,341.463,64.923,345.264,61.463z       M377.628,106.548v113.58h-34.807v-113.58H377.628L377.628,106.548z"
             id="path33" /><path
             fill="#EF6534"
             d="M465.964,190.206v29.922h-15.673c-13.301,0-23.646-3.288-31.041-9.872      c-7.397-6.58-11.094-17.47-11.094-32.669v-41.728H392.89v-29.313h15.267V78.662h34.807v27.886h22.798v29.313h-22.798v42.338      c0,4.478,0.916,7.601,2.748,9.363c1.832,1.765,4.917,2.646,9.262,2.646L465.964,190.206L465.964,190.206z"
             id="path35" /><path
             fill="#EF6534"
             d="M1354.96,216.686c-3.336-3.267-5.006-7.404-5.006-12.41c0-5.146,1.633-9.315,4.9-12.518      c3.268-3.195,7.334-4.798,12.203-4.798c4.865,0,8.936,1.603,12.201,4.798c3.27,3.2,4.902,7.372,4.902,12.518      c0,5.006-1.668,9.146-5.006,12.41c-3.338,3.27-7.373,4.9-12.1,4.9C1362.33,221.588,1358.298,219.955,1354.96,216.686z"
             id="path37" /></g><path
           fill="#EF6534"
           d="M130.85,41.875c0,0,9.232,0.001,19.371,2.413c5.9-8.114,13.664-21.433,21.34-30.803     C159.93,0,130.85,0,130.85,0s-29.078,0-40.709,13.485c7.678,9.37,15.441,22.688,21.34,30.802     C121.619,41.876,130.85,41.875,130.85,41.875z"
           id="path39" /><path
           fill="#EF6534"
           d="M146.596,60.893c-8.613-1.642-15.746-1.645-15.746-1.645s-7.133,0.005-15.744,1.646L90.141,198.375     l40.709,51.697l40.711-51.697L146.596,60.893z"
           id="path41" /></g></g><g
       id="g43"><path
         fill="#FFFFFF"
         d="M831.138,296.902v44.131c0,7.234,1.6,12.572,4.801,16.015c3.195,3.441,7.613,5.166,13.25,5.166    c5.563,0,9.91-1.739,13.037-5.22c3.133-3.475,4.697-8.796,4.697-15.961v-44.131h9.492v44.131c0,10.02-2.488,17.543-7.457,22.586    c-4.977,5.045-11.635,7.564-19.979,7.564c-8.277,0-14.904-2.521-19.873-7.564c-4.977-5.043-7.463-12.566-7.463-22.586v-44.131    H831.138z"
         id="path45"
         style="fill:#00386b;fill-opacity:1" /><path
         fill="#FFFFFF"
         d="M934.63,318.29c4.799,3.896,7.756,9.112,8.867,15.647h-10.014c-0.699-4.103-2.594-7.318-5.688-9.65    c-3.096-2.326-6.938-3.494-11.526-3.494c-3.339,0-6.384,0.768-9.128,2.296c-2.75,1.53-4.959,3.877-6.627,7.043    c-1.67,3.166-2.506,7.078-2.506,11.737c0,4.658,0.836,8.57,2.506,11.734c1.668,3.168,3.877,5.514,6.627,7.043    c2.744,1.528,5.789,2.295,9.128,2.295c4.589,0,8.433-1.183,11.526-3.549c3.096-2.361,4.988-5.597,5.688-9.699h10.014    c-1.111,6.606-4.068,11.839-8.867,15.701c-4.799,3.859-10.852,5.789-18.15,5.789c-5.496,0-10.367-1.185-14.605-3.547    c-4.244-2.365-7.564-5.755-9.965-10.174c-2.398-4.417-3.602-9.613-3.602-15.596c0-5.98,1.201-11.198,3.602-15.649    c2.399-4.45,5.721-7.858,9.965-10.224c4.238-2.364,9.109-3.551,14.605-3.551C923.779,312.445,929.832,314.393,934.63,318.29     M930.354,298.363l-14.396,8.658l-14.502-8.658v-6.678l14.502,8.764l14.396-8.764V298.363z"
         id="path47"
         style="fill:#00386b;fill-opacity:1" /><path
         fill="#FFFFFF"
         d="M978.759,296.484l-22.223,12.207v-6.779l22.223-13.146V296.484z M966.343,370.453h-9.596V313.18h9.596    V370.453z"
         id="path49"
         style="fill:#00386b;fill-opacity:1" /><path
         fill="#FFFFFF"
         d="M1069.054,318.654c4.068,4.277,6.104,10.451,6.104,18.521v33.28h-9.494v-32.446    c0-5.634-1.371-9.944-4.119-12.938c-2.748-2.988-6.521-4.484-11.32-4.484c-5.008,0-9.023,1.65-12.049,4.956    c-3.021,3.304-4.539,8.155-4.539,14.554v30.36h-9.494V338.01c0-5.633-1.393-9.945-4.174-12.938    c-2.783-2.989-6.537-4.485-11.266-4.485c-5.078,0-9.127,1.651-12.156,4.957c-3.021,3.304-4.535,8.154-4.535,14.554v30.359h-9.494    v-57.275h9.494v13.039c1.393-4.52,3.873-7.979,7.457-10.379s7.703-3.602,12.365-3.602c4.867,0,9.092,1.234,12.676,3.703    c3.58,2.471,6.135,6.104,7.666,10.902c1.602-4.658,4.277-8.26,8.031-10.798c3.76-2.538,8-3.81,12.73-3.81    C1059.613,312.238,1064.986,314.38,1069.054,318.654"
         id="path51"
         style="fill:#00386b;fill-opacity:1" /><path
         fill="#FFFFFF"
         d="M1142.132,343.85h-45.799c0.209,6.539,2.068,11.44,5.582,14.711c3.508,3.268,7.807,4.902,12.885,4.902    c4.59,0,8.434-1.165,11.527-3.495c3.096-2.329,4.99-5.438,5.688-9.336h10.117c-0.691,3.964-2.24,7.511-4.643,10.64    c-2.4,3.131-5.512,5.565-9.336,7.305c-3.828,1.738-8.141,2.607-12.938,2.607c-5.496,0-10.365-1.185-14.607-3.547    c-4.24-2.365-7.563-5.755-9.961-10.174c-2.398-4.417-3.6-9.613-3.6-15.596c0-5.98,1.199-11.198,3.6-15.649    c2.398-4.45,5.721-7.858,9.961-10.224c4.242-2.364,9.111-3.551,14.607-3.551c5.563,0,10.41,1.187,14.555,3.551    c4.139,2.363,7.303,5.527,9.488,9.492c2.195,3.965,3.289,8.348,3.289,13.146C1142.55,340.652,1142.412,342.389,1142.132,343.85     M1130.867,328.618c-1.604-2.853-3.793-4.974-6.572-6.363c-2.783-1.392-5.807-2.086-9.076-2.086c-5.217,0-9.6,1.615-13.145,4.851    c-3.553,3.232-5.462,7.98-5.74,14.24h36.619C1133.162,335.016,1132.466,331.471,1130.867,328.618"
         id="path53"
         style="fill:#00386b;fill-opacity:1" /><path
         fill="#FFFFFF"
         d="M1227.054,318.654c4.105,4.277,6.156,10.451,6.156,18.521v33.28h-9.494v-32.446    c0-5.702-1.461-10.084-4.381-13.146s-6.887-4.59-11.896-4.59c-5.215,0-9.391,1.687-12.518,5.059    c-3.131,3.375-4.695,8.292-4.695,14.763v30.36h-9.492v-57.276h9.492v13.563c1.463-4.66,4.057-8.244,7.773-10.747    c3.719-2.505,8.014-3.757,12.885-3.757C1217.563,312.238,1222.951,314.38,1227.054,318.654"
         id="path55"
         style="fill:#00386b;fill-opacity:1" /><path
         fill="#FFFFFF"
         d="M1285.425,316.619c3.861,2.783,6.559,6.505,8.084,11.164V313.18h9.494v57.272h-9.494v-14.604    c-1.525,4.659-4.223,8.381-8.084,11.162c-3.857,2.78-8.57,4.174-14.137,4.174c-5.076,0-9.596-1.186-13.563-3.548    c-3.966-2.364-7.075-5.754-9.337-10.173c-2.264-4.417-3.393-9.613-3.393-15.596c0-5.98,1.129-11.198,3.393-15.649    c2.262-4.45,5.371-7.858,9.337-10.224c3.968-2.364,8.485-3.551,13.563-3.551C1276.854,312.445,1281.566,313.84,1285.425,316.619     M1259.97,326.48c-3.514,3.719-5.27,8.852-5.27,15.389c0,6.538,1.756,11.668,5.27,15.387c3.512,3.721,8.189,5.583,14.031,5.583    c3.756,0,7.111-0.868,10.066-2.608c2.953-1.737,5.27-4.188,6.938-7.354c1.668-3.163,2.502-6.831,2.502-11.005    c0-4.176-0.834-7.859-2.502-11.061c-1.67-3.199-3.984-5.648-6.938-7.355c-2.955-1.7-6.313-2.555-10.066-2.555    C1268.16,320.898,1263.479,322.76,1259.97,326.48 M1291.216,296.484l-22.221,12.209v-6.783l22.221-13.145V296.484z"
         id="path57"
         style="fill:#00386b;fill-opacity:1" /><path
         fill="#FFFFFF"
         d="M1335.867,315.525c3.614-2.191,7.93-3.285,12.938-3.285v10.324h-2.922c-5.356,0-9.738,1.375-13.145,4.123    c-3.408,2.748-5.111,7.287-5.111,13.614v30.149h-9.494v-57.273h9.494v11.58C1329.503,320.794,1332.251,317.717,1335.867,315.525"
         id="path59"
         style="fill:#00386b;fill-opacity:1" /><path
         fill="#FFFFFF"
         d="M1398.931,315.996c4.35,2.363,7.756,5.771,10.229,10.223c2.467,4.452,3.703,9.67,3.703,15.65    s-1.236,11.179-3.703,15.596c-2.473,4.417-5.879,7.811-10.229,10.172c-4.348,2.366-9.268,3.549-14.762,3.549    s-10.416-1.183-14.764-3.549c-4.35-2.361-7.771-5.755-10.275-10.172s-3.756-9.613-3.756-15.596s1.252-11.198,3.756-15.65    c2.504-4.449,5.928-7.857,10.275-10.223c4.347-2.365,9.27-3.551,14.764-3.551S1394.583,313.632,1398.931,315.996     M1374.729,323.089c-2.889,1.532-5.219,3.879-6.99,7.043c-1.771,3.166-2.662,7.078-2.662,11.737c0,4.592,0.891,8.466,2.662,11.632    c1.771,3.165,4.104,5.513,6.99,7.043c2.885,1.53,6.031,2.295,9.439,2.295c3.406,0,6.556-0.765,9.439-2.295    c2.887-1.53,5.219-3.878,6.99-7.043c1.773-3.166,2.658-7.04,2.658-11.632c0-4.659-0.885-8.571-2.658-11.737    c-1.771-3.164-4.104-5.511-6.99-7.043c-2.887-1.528-6.033-2.296-9.439-2.296C1380.761,320.793,1377.613,321.559,1374.729,323.089"
         id="path61"
         style="fill:#00386b;fill-opacity:1" /><path
         fill="#FFFFFF"
         d="M1462.884,316.621c3.859,2.781,6.557,6.504,8.082,11.164V293.25h9.494v77.205h-9.494V355.85    c-1.525,4.657-4.223,8.381-8.082,11.162c-3.857,2.782-8.576,4.172-14.139,4.172c-5.076,0-9.596-1.181-13.563-3.545    c-3.965-2.365-7.075-5.755-9.338-10.175c-2.26-4.414-3.391-9.61-3.391-15.596c0-5.979,1.131-11.198,3.391-15.649    c2.263-4.449,5.373-7.857,9.338-10.225c3.969-2.364,8.486-3.546,13.563-3.546C1454.308,312.448,1459.025,313.839,1462.884,316.621     M1437.427,326.479c-3.514,3.722-5.27,8.853-5.27,15.39c0,6.538,1.756,11.668,5.27,15.389c3.514,3.722,8.189,5.581,14.031,5.581    c3.758,0,7.111-0.867,10.068-2.607c2.953-1.736,5.268-4.188,6.938-7.355c1.668-3.163,2.5-6.831,2.5-11.005    c0-4.173-0.832-7.856-2.5-11.06c-1.672-3.197-3.984-5.65-6.938-7.354c-2.957-1.703-6.313-2.558-10.068-2.558    C1445.617,320.896,1440.938,322.76,1437.427,326.479"
         id="path63"
         style="fill:#00386b;fill-opacity:1" /><rect
         x="1521.251"
         y="296.691"
         fill="#FFFFFF"
         width="17.842"
         height="73.762"
         id="rect65"
         style="fill:#00386b;fill-opacity:1" /><polygon
         fill="#FFFFFF"
         points="1604.4,296.693 1604.4,310.882 1584.369,310.882 1584.369,370.453 1566.427,370.453     1566.427,310.882 1546.604,310.882 1546.604,296.693   "
         id="polygon67"
         style="fill:#00386b;fill-opacity:1" /></g></g></svg>