<?xml version="1.0" encoding="UTF-8" standalone="no"?>
<svg
   xmlns:dc="http://purl.org/dc/elements/1.1/"
   xmlns:cc="http://creativecommons.org/ns#"
   xmlns:rdf="http://www.w3.org/1999/02/22-rdf-syntax-ns#"
   xmlns:svg="http://www.w3.org/2000/svg"
   xmlns="http://www.w3.org/2000/svg"
   xmlns:sodipodi="http://sodipodi.sourceforge.net/DTD/sodipodi-0.dtd"
   xmlns:inkscape="http://www.inkscape.org/namespaces/inkscape"
   version="1.0"
   width="389.21201pt"
   height="132.73781pt"
   viewBox="0 0 389.21201 132.7378"
   preserveAspectRatio="xMidYMid meet"
   id="svg2"
   inkscape:version="0.91 r13725"
   sodipodi:docname="podpis3.svg">
  <metadata
     id="metadata16">
    <rdf:RDF>
      <cc:Work
         rdf:about="">
        <dc:format>image/svg+xml</dc:format>
        <dc:type
           rdf:resource="http://purl.org/dc/dcmitype/StillImage" />
        <dc:title />
      </cc:Work>
    </rdf:RDF>
  </metadata>
  <defs
     id="defs14">
    <marker
       inkscape:stockid="StopL"
       orient="auto"
       refY="0"
       refX="0"
       id="StopL"
       style="overflow:visible"
       inkscape:isstock="true">
      <path
         id="path5813"
         d="M 0,5.65 0,-5.65"
         style="fill:#ffff00;fill-opacity:1;fill-rule:evenodd;stroke:#000000;stroke-width:1pt;stroke-opacity:1"
         transform="scale(0.8,0.8)"
         inkscape:connector-curvature="0" />
    </marker>
    <marker
       inkscape:stockid="Scissors"
       orient="auto"
       refY="0"
       refX="0"
       id="Scissors"
       style="overflow:visible"
       inkscape:isstock="true">
      <path
         id="schere"
         d="M 9.0898857,-3.6061018 C 8.1198849,-4.7769976 6.3697607,-4.7358294 5.0623558,-4.2327734 l -8.2124046,3.0779029 c -2.3882933,-1.3067135 -4.7482873,-0.9325372 -4.7482873,-1.5687873 0,-0.4973164 0.4566662,-0.3883222 0.3883068,-1.6831941 -0.065635,-1.2432767 -1.3635771,-2.1630796 -2.5903987,-2.0816435 -1.227271,-0.00735 -2.499439,0.9331613 -2.510341,2.2300611 -0.09143,1.3063864 1.007209,2.5196896 2.306764,2.6052316 1.5223406,0.2266616 4.218258,-0.6955566 5.482945,1.57086006 -0.9422847,1.73825774 -2.6140244,1.74307674 -4.1255107,1.65607034 -1.2548743,-0.072235 -2.7620933,0.2873979 -3.3606483,1.5208605 -0.578367,1.1820862 -0.0112,2.8646022 1.316749,3.226412 1.3401912,0.4918277 3.1806689,-0.129711 3.4993722,-1.6707242 0.2456585,-1.187823 -0.5953659,-1.7459574 -0.2725074,-2.1771537 0.2436135,-0.32536 1.7907806,-0.1368452 4.5471053,-1.3748244 L 5.6763468,4.2330688 C 6.8000164,4.5467672 8.1730685,4.5362646 9.1684433,3.4313614 L -0.05164093,-0.05372222 9.0898857,-3.6061018 Z m -18.3078016,-1.900504 c 1.294559,0.7227998 1.1888392,2.6835702 -0.1564272,3.0632889 -1.2165179,0.423661 -2.7710269,-0.7589694 -2.3831779,-2.0774648 0.227148,-1.0818519 1.653387,-1.480632 2.5396051,-0.9858241 z m 0.056264,8.0173649 c 1.3508301,0.4988648 1.1214429,2.7844356 -0.2522207,3.091609 -0.9110594,0.3163391 -2.2135494,-0.1387976 -2.3056964,-1.2121394 -0.177609,-1.305055 1.356085,-2.4841482 2.5579171,-1.8794696 z"
         style="fill:#ffff00;fill-opacity:1;stroke:#000000;stroke-opacity:1"
         inkscape:connector-curvature="0" />
    </marker>
    <marker
       inkscape:stockid="Tail"
       orient="auto"
       refY="0"
       refX="0"
       id="Tail"
       style="overflow:visible"
       inkscape:isstock="true">
      <g
         id="g5680"
         transform="scale(-1.2,-1.2)"
         style="fill:#ffff00;fill-opacity:1;stroke:#000000;stroke-opacity:1">
        <path
           id="path5682"
           d="M -3.8048674,-3.9585227 0.54352094,0"
           style="fill:#ffff00;fill-opacity:1;fill-rule:evenodd;stroke:#000000;stroke-width:0.80000001;stroke-linecap:round;stroke-opacity:1"
           inkscape:connector-curvature="0" />
        <path
           id="path5684"
           d="M -1.2866832,-3.9585227 3.0617053,0"
           style="fill:#ffff00;fill-opacity:1;fill-rule:evenodd;stroke:#000000;stroke-width:0.80000001;stroke-linecap:round;stroke-opacity:1"
           inkscape:connector-curvature="0" />
        <path
           id="path5686"
           d="M 1.3053582,-3.9585227 5.6537466,0"
           style="fill:#ffff00;fill-opacity:1;fill-rule:evenodd;stroke:#000000;stroke-width:0.80000001;stroke-linecap:round;stroke-opacity:1"
           inkscape:connector-curvature="0" />
        <path
           id="path5688"
           d="M -3.8048674,4.1775838 0.54352094,0.21974226"
           style="fill:#ffff00;fill-opacity:1;fill-rule:evenodd;stroke:#000000;stroke-width:0.80000001;stroke-linecap:round;stroke-opacity:1"
           inkscape:connector-curvature="0" />
        <path
           id="path5690"
           d="M -1.2866832,4.1775838 3.0617053,0.21974226"
           style="fill:#ffff00;fill-opacity:1;fill-rule:evenodd;stroke:#000000;stroke-width:0.80000001;stroke-linecap:round;stroke-opacity:1"
           inkscape:connector-curvature="0" />
        <path
           id="path5692"
           d="M 1.3053582,4.1775838 5.6537466,0.21974226"
           style="fill:#ffff00;fill-opacity:1;fill-rule:evenodd;stroke:#000000;stroke-width:0.80000001;stroke-linecap:round;stroke-opacity:1"
           inkscape:connector-curvature="0" />
      </g>
    </marker>
    <marker
       inkscape:stockid="Arrow1Lend"
       orient="auto"
       refY="0"
       refX="0"
       id="Arrow1Lend"
       style="overflow:visible"
       inkscape:isstock="true">
      <path
         id="path5647"
         d="M 0,0 5,-5 -12.5,0 5,5 0,0 Z"
         style="fill:#ffff00;fill-opacity:1;fill-rule:evenodd;stroke:#000000;stroke-width:1pt;stroke-opacity:1"
         transform="matrix(-0.8,0,0,-0.8,-10,0)"
         inkscape:connector-curvature="0" />
    </marker>
    <marker
       inkscape:stockid="Arrow1Lstart"
       orient="auto"
       refY="0"
       refX="0"
       id="Arrow1Lstart"
       style="overflow:visible"
       inkscape:isstock="true">
      <path
         id="path5644"
         d="M 0,0 5,-5 -12.5,0 5,5 0,0 Z"
         style="fill:#ffff00;fill-opacity:1;fill-rule:evenodd;stroke:#000000;stroke-width:1pt;stroke-opacity:1"
         transform="matrix(0.8,0,0,0.8,10,0)"
         inkscape:connector-curvature="0" />
    </marker>
  </defs>
  <sodipodi:namedview
     pagecolor="#ffffff"
     bordercolor="#666666"
     borderopacity="1"
     objecttolerance="10"
     gridtolerance="10"
     guidetolerance="10"
     inkscape:pageopacity="0"
     inkscape:pageshadow="2"
     inkscape:window-width="1920"
     inkscape:window-height="1137"
     id="namedview12"
     showgrid="false"
     inkscape:zoom="1.6082051"
     inkscape:cx="289.71126"
     inkscape:cy="111.89489"
     inkscape:window-x="-8"
     inkscape:window-y="-8"
     inkscape:window-maximized="1"
     inkscape:current-layer="svg2"
     fit-margin-top="0"
     fit-margin-left="0"
     fit-margin-right="0"
     fit-margin-bottom="0" />
  <g
     transform="matrix(0.1,0,0,-0.1,-0.42001527,132.71272)"
     id="g4"
     style="fill:#000000;stroke:none">
    <path
       d="m 3412,1311 c -64,-24 -115,-55 -164,-99 -68,-62 -43,-134 68,-202 l 62,-37 -115,-115 c -90,-92 -114,-121 -111,-140 4,-33 45,-37 57,-6 5,13 59,72 119,131 l 109,109 42,-21 c 24,-13 41,-28 41,-39 0,-17 -6,-27 -73,-125 -64,-91 -49,-158 44,-204 50,-25 339,-78 371,-67 28,8 43,46 29,73 -14,25 -18,26 -208,50 -83,11 -161,24 -172,31 -31,16 -25,48 24,124 68,104 60,180 -20,206 -19,6 -35,13 -35,15 0,1 19,30 41,64 72,108 101,221 63,252 -26,21 -113,22 -172,0 z m 138,-55 c 0,-28 -70,-169 -105,-211 l -25,-30 -67,35 c -79,42 -110,78 -94,108 29,55 163,121 244,122 43,0 47,-2 47,-24 z"
       id="path6"
       inkscape:connector-curvature="0"
       style="fill-opacity:1;fill:#000000" />
    <path
       d="m 665,1174 c -13,-30 -47,-92 -74,-137 -56,-94 -73,-127 -68,-127 5,0 91,144 134,225 49,92 42,38 -22,-177 C 560,706 558,700 546,700 522,700 409,639 309,572 185,489 78,380 36,294 -17,188 1,66 75,20 117,-6 140,-5 201,25 326,89 437,261 535,542 l 43,123 55,9 c 47,8 75,4 190,-23 233,-54 346,-41 552,64 113,57 125,61 140,46 12,-12 41,-17 120,-19 l 104,-4 6,-29 c 8,-37 58,-79 98,-81 65,-3 265,24 350,48 13,4 17,-1 17,-20 0,-38 10,-55 41,-71 52,-27 112,-18 301,45 98,33 183,60 188,60 4,0 11,-13 15,-30 16,-74 87,-107 120,-56 15,22 14,28 -10,88 -59,140 -101,145 -365,49 -58,-21 -119,-41 -136,-45 -29,-6 -32,-5 -37,24 -4,17 -18,42 -31,55 -33,33 -86,33 -248,0 -167,-34 -189,-33 -208,8 -22,48 -52,59 -139,52 -41,-3 -88,-9 -105,-11 l -31,-6 38,34 c 28,24 36,38 32,51 -14,34 -70,11 -150,-60 -57,-52 -241,-145 -331,-167 -92,-23 -171,-20 -318,15 -93,22 -148,30 -189,27 -48,-4 -56,-2 -52,11 50,167 107,390 112,439 8,80 -8,82 -42,6 z M 540,645 C 540,642 524,595 504,542 454,407 370,246 313,175 263,113 173,50 135,50 89,50 45,131 57,193 c 24,129 149,263 370,398 93,56 113,66 113,54 z"
       id="path8"
       inkscape:connector-curvature="0" />
    <path
       d="m 2569,1002 c -158,-27 -189,-39 -189,-73 0,-23 26,-25 37,-4 6,10 62,23 188,42 141,22 180,31 180,43 0,23 -44,21 -216,-8 z"
       id="path10"
       inkscape:connector-curvature="0" />
  </g>
  <path
     style="opacity:1;fill:#000000;fill-opacity:1;fill-rule:nonzero;stroke:#000000;stroke-width:0.80000001;stroke-miterlimit:4;stroke-dasharray:none;stroke-dashoffset:0;stroke-opacity:1"
     d="M 9.9524839,131.92189 C 5.6481558,130.31272 2.3914863,126.41933 1.0044417,121.22437 0.21024437,118.24983 0.29294653,112.79873 1.1843539,109.3659 2.1316491,105.71785 4.1177304,101.66677 6.8844573,97.73918 9.6406735,93.826516 18.401491,84.932012 23.324407,81.048364 c 8.456209,-6.671022 23.00033,-15.44679 29.23118,-17.637778 l 2.638121,-0.927656 0.809626,-2.004684 C 57.95771,55.639091 67.541288,22.641142 68.397731,17.80215 c 0.476752,-2.693698 0.332777,-3.29064 -0.644918,-2.673925 -0.609596,0.384525 -0.840713,0.763679 -5.329656,8.743549 -4.252958,7.56036 -6.409285,11.138151 -6.598748,10.948687 -0.09867,-0.09867 1.376333,-2.83992 3.277785,-6.091667 1.901449,-3.251748 4.754606,-8.496973 6.340345,-11.656056 2.898336,-5.774015 3.832505,-7.23827 4.395787,-6.890143 0.557864,0.34478 0.314429,5.792451 -0.420633,9.41293 -1.026486,5.055873 -4.199812,17.616283 -6.901218,27.315844 -1.266196,4.546363 -2.636604,9.483421 -3.045348,10.971237 -0.408744,1.48782 -0.614996,2.833262 -0.458337,2.989871 0.156662,0.156613 2.843776,0.293859 5.971367,0.304988 6.137878,0.02185 6.305853,0.04622 18.318668,2.65782 4.432664,0.963663 9.656144,1.979153 11.607736,2.256645 6.932759,0.985744 15.486269,0.543224 21.311699,-1.102566 6.07337,-1.715841 18.91878,-7.707265 25.90761,-12.083962 1.96435,-1.230148 4.9718,-3.406427 6.68324,-4.836168 4.30216,-3.594024 7.87495,-5.940133 10.12712,-6.650068 1.79867,-0.566982 1.9568,-0.566754 2.82799,0.0041 0.50753,0.332548 1.01829,0.853508 1.13501,1.157688 0.36868,0.96076 -0.92861,2.761586 -3.88964,5.399374 -3.25496,2.899615 -3.58375,3.363942 -2.12219,2.996958 2.6292,-0.66016 8.97048,-1.30353 14.55554,-1.476771 l 6.15561,-0.190933 1.93462,0.999345 c 1.55789,0.80474 2.14789,1.376083 3.02978,2.933968 1.58556,2.800936 2.94689,4.122044 4.56361,4.428759 1.93641,0.36736 7.28163,-0.293176 15.65001,-1.933961 10.48682,-2.056142 13.1177,-2.476503 17.03889,-2.722468 7.03139,-0.441059 10.24558,1.643621 12.27204,7.959469 l 0.73573,2.293063 1.47553,0.107213 c 1.52824,0.111044 6.17607,-1.332553 20.67259,-6.420832 12.38079,-4.345652 18.83903,-5.469762 22.75108,-3.960018 2.4921,0.961754 4.8496,3.697641 6.91538,8.025289 1.94819,4.08134 3.23422,7.622511 3.23422,8.905645 0,1.327348 -2.10715,3.825308 -3.65949,4.338221 -3.5593,1.176036 -7.2156,-1.958464 -8.99156,-7.708327 -0.39471,-1.277942 -0.93543,-2.504256 -1.20158,-2.725144 -0.56209,-0.46649 -0.93159,-0.359074 -17.62895,5.124776 -14.00226,4.59871 -19.67947,6.093298 -24.09485,6.34323 -3.8641,0.218724 -5.36401,-0.102954 -8.0741,-1.731621 -2.41367,-1.450535 -3.12467,-2.674932 -3.45064,-5.942306 l -0.25913,-2.597378 -1.05512,0.02709 c -0.58031,0.01488 -3.42942,0.524557 -6.33135,1.132581 -9.68143,2.028486 -25.28779,3.89099 -29.21083,3.486098 -2.31717,-0.239154 -4.36248,-1.281118 -6.57243,-3.348266 -1.99572,-1.866756 -2.69667,-3.04977 -3.25831,-5.499128 -0.31654,-1.380432 -0.57573,-1.786291 -1.25599,-1.966682 -0.47143,-0.125015 -4.10203,-0.33648 -8.06801,-0.469926 -8.63202,-0.290451 -11.19871,-0.653872 -13.41437,-1.899353 -1.58281,-0.88974 -1.76261,-0.916079 -3.36236,-0.492544 -0.92956,0.246105 -5.72645,2.402765 -10.65973,4.792577 -10.45689,5.065587 -14.21749,6.594712 -19.5221,7.938044 -10.96259,2.776122 -19.936457,2.326422 -38.692453,-1.938992 -8.772085,-1.994912 -12.296485,-2.272105 -17.838314,-1.402981 l -4.045728,0.634489 -2.905226,8.297226 C 46.903667,95.50726 41.270965,107.23552 33.705255,117.24726 26.062008,127.36161 15.390152,133.95476 9.9524839,131.92189 Z m 6.4134071,-4.9373 c 4.489767,-1.84689 11.184521,-7.2272 14.87722,-11.95624 4.574248,-5.85798 11.4278,-18.349106 15.988451,-29.140178 2.655519,-6.28328 6.379273,-16.53507 6.379273,-17.562635 0,-0.657118 -0.14008,-0.720971 -1.143186,-0.5211 -2.414986,0.48119 -16.909006,9.556223 -24.710406,15.471743 -5.161358,3.913664 -13.05188,11.656248 -15.994001,15.69412 -2.5637229,3.51855 -5.362033,9.09067 -6.182682,12.31123 -0.4013705,1.57516 -0.5382601,3.23401 -0.4400569,5.33271 0.123145,2.63173 0.3162556,3.39769 1.4189007,5.62799 2.5641625,5.18649 5.3967672,6.55632 9.8064872,4.74236 z"
     id="path5638"
     inkscape:connector-curvature="0" />
  <path
     style="opacity:1;fill:#640000;fill-opacity:1;fill-rule:nonzero;stroke:#000000;stroke-width:0.83199996;stroke-linecap:butt;stroke-miterlimit:4;stroke-dasharray:none;stroke-dashoffset:0;stroke-opacity:1"
     d="m 8.3081287,131.33187 c -3.2892663,-1.85182 -5.4507352,-4.49244 -7.0546152,-8.61847 -0.70459133,-1.81259 -0.82273037,-2.75598 -0.83693037,-6.68324 -0.011944,-3.30344 0.15501056,-5.2074 0.60146277,-6.85912 0.9098864,-3.36626 3.776686,-8.88311 6.4884207,-12.486252 C 10.406399,92.831572 18.198162,84.9835 22.733846,81.347364 31.227585,74.538162 46.182047,65.477487 52.874943,63.085344 l 2.18363,-0.780462 0.872159,-2.332574 c 2.717399,-7.267656 11.788485,-38.780738 12.340683,-42.871714 0.248166,-1.838545 0.01811,-2.244359 -0.805412,-1.42082 -0.234226,0.234226 -2.733206,4.468411 -5.553288,9.409301 -4.79417,8.399574 -6.818629,11.58556 -6.822784,10.737351 -10e-4,-0.196119 1.517054,-3.04529 3.373366,-6.331492 1.856313,-3.2862 4.655244,-8.428364 6.21984,-11.427028 3.542343,-6.789155 4.347589,-8.0902396 5.007063,-8.0902396 0.725983,0 0.709233,5.2636146 -0.02926,9.1945686 -0.790325,4.206858 -4.31234,18.158796 -7.56151,29.953827 -1.534635,5.57098 -2.790247,10.419852 -2.790247,10.775273 0,0.906639 0.914919,1.068091 6.155617,1.08627 5.057322,0.01755 7.194907,0.347085 20.577349,3.172352 7.92268,1.672618 9.106856,1.834169 14.679731,2.002672 9.95799,0.301093 14.46799,-0.553439 23.72283,-4.494885 10.03873,-4.275287 18.04378,-8.81555 24.24951,-13.753717 8.13175,-6.47079 11.65155,-8.090938 13.61125,-6.265199 1.46845,1.368076 0.78457,2.810874 -2.97392,6.274088 -1.4916,1.374419 -2.62591,2.585042 -2.52068,2.690272 0.10524,0.10523 0.88505,0.03773 1.73295,-0.149993 1.85351,-0.410379 8.29351,-0.97002 14.55633,-1.264958 l 4.57275,-0.215348 1.92583,1.162676 c 1.44629,0.873155 2.34333,1.795062 3.60246,3.702287 0.9266,1.403537 2.1422,2.78037 2.71738,3.077809 2.04842,1.059273 5.92446,0.657761 20.56511,-2.130301 10.11175,-1.92561 16.49819,-2.391862 19.42892,-1.41843 2.84658,0.945482 5.00557,3.54209 6.45407,7.762261 l 0.60984,1.776782 2.07104,-0.05352 c 2.13652,-0.05521 4.03641,-0.633831 20.36729,-6.202955 12.83153,-4.375783 19.16807,-5.383745 22.77939,-3.623545 3.0799,1.501172 6.47662,6.559569 8.83336,13.154666 1.12646,3.152274 1.14815,4.195345 0.11899,5.722515 -1.94609,2.887804 -4.60327,3.510956 -7.40219,1.73594 -1.95906,-1.242404 -3.3507,-3.30608 -4.67145,-6.927356 -0.53005,-1.453288 -1.13831,-2.70934 -1.35171,-2.791231 -0.46969,-0.180233 -3.70697,0.795499 -18.05252,5.441127 -20.07255,6.500236 -25.613,7.381752 -30.55376,4.861263 -3.11147,-1.587291 -4.12705,-3.123593 -4.55286,-6.887232 -0.1453,-1.284326 -0.40995,-2.143302 -0.66034,-2.143302 -0.22982,0 -3.73127,0.620184 -7.781,1.378183 -12.37193,2.315698 -25.10214,3.723115 -28.63065,3.165335 -4.3947,-0.694709 -8.74817,-4.759899 -9.6717,-9.031251 -0.13629,-0.63036 -0.51194,-1.285792 -0.83477,-1.456517 -0.32284,-0.170722 -3.27785,-0.414446 -6.56672,-0.541607 -8.57189,-0.331425 -12.32096,-0.796554 -14.55217,-1.805414 -3.07967,-1.392506 -2.8874,-1.446658 -14.5129,4.087657 -16.51113,7.860129 -22.6059,9.608408 -33.37047,9.572297 -6.957301,-0.02332 -11.343389,-0.673396 -26.73296,-3.96206 -6.464657,-1.381462 -11.902343,-1.690432 -16.481291,-0.936467 -1.809876,0.298013 -3.33116,0.591143 -3.380637,0.651405 -0.04948,0.06026 -0.925379,2.483873 -1.946445,5.385806 -8.276189,23.521414 -13.832425,35.28378 -21.434312,45.3757 -6.539757,8.68188 -15.19223,14.86644 -21.262058,15.19756 -2.279316,0.12435 -2.676584,0.0392 -4.4355327,-0.9511 z m 8.9769023,-5.05097 c 3.152899,-1.51853 7.511915,-4.76887 10.778777,-8.03729 7.182922,-7.18636 17.499321,-26.702566 23.828572,-45.078063 1.607555,-4.667161 1.687199,-5.149205 0.850752,-5.149205 -1.994293,0 -18.400624,10.316437 -25.910796,16.292926 -4.474691,3.560896 -10.988913,9.877912 -13.776615,13.35956 -2.698377,3.370082 -5.4675835,8.321052 -6.6649129,11.915982 -0.7129471,2.14059 -0.8993114,3.39526 -0.8993114,6.05448 0,3.84573 0.7297185,6.30732 2.5945424,8.75227 2.5907649,3.39672 5.0293459,3.89757 9.1989919,1.88934 z"
     id="path6212"
     inkscape:connector-curvature="0" />
</svg>
